<svg width="80" height="80" viewBox="0 0 80 80" fill="none" xmlns="http://www.w3.org/2000/svg">
<path d="M49.0005 21C48.3897 21.6231 48.0476 22.4608 48.0476 23.3333C48.0476 24.2059 48.3897 25.0436 49.0005 25.6667L54.3338 31C54.9569 31.6108 55.7947 31.9529 56.6672 31.9529C57.5397 31.9529 58.3774 31.6108 59.0005 31L71.5672 18.4333C73.2433 22.1373 73.7508 26.2641 73.022 30.2638C72.2933 34.2635 70.3629 37.9462 67.4881 40.8209C64.6133 43.6957 60.9307 45.6261 56.931 46.3549C52.9313 47.0836 48.8045 46.5761 45.1005 44.9L22.0672 67.9333C20.7411 69.2594 18.9425 70.0044 17.0672 70.0044C15.1918 70.0044 13.3932 69.2594 12.0672 67.9333C10.7411 66.6073 9.99609 64.8087 9.99609 62.9333C9.99609 61.058 10.7411 59.2594 12.0672 57.9333L35.1005 34.9C33.4244 31.1961 32.9169 27.0692 33.6456 23.0695C34.3744 19.0698 36.3048 15.3872 39.1796 12.5124C42.0543 9.63764 45.737 7.70724 49.7367 6.97849C53.7364 6.24973 57.8632 6.75723 61.5672 8.43335L49.0338 20.9667L49.0005 21Z" stroke="#FF3D00" stroke-width="1.5" stroke-linecap="round" stroke-linejoin="round"/>
</svg>
