<svg width="40" height="50" viewBox="0 0 40 50" fill="none" xmlns="http://www.w3.org/2000/svg">
<rect x="0.75" y="0.75" width="38.5" height="48.5" rx="4.25" stroke="#FF3D00" stroke-width="1.5"/>
<g clip-path="url(#clip0_189_20999)">
<path d="M35 38.5399V38.9999C34.9994 40.0781 34.6503 41.1273 34.0047 41.9908C33.3591 42.8544 32.4516 43.4862 31.4177 43.7919C30.3837 44.0976 29.2786 44.0609 28.2672 43.6872C27.2558 43.3136 26.3923 42.623 25.8055 41.7185C25.2186 40.814 24.9399 39.744 25.0108 38.6681C25.0818 37.5922 25.4986 36.5681 26.1991 35.7485C26.8997 34.9288 27.8464 34.3576 28.8981 34.12C29.9498 33.8824 31.0501 33.9911 32.035 34.4299" stroke="#FF3D00" stroke-width="1.5" stroke-linecap="round" stroke-linejoin="round"/>
<path d="M35 35L30 40.005L28.5 38.505" stroke="#FF3D00" stroke-width="1.5" stroke-linecap="round" stroke-linejoin="round"/>
</g>
<line x1="4.25" y1="6.75" x2="14.75" y2="6.75" stroke="#FF3D00" stroke-width="1.5" stroke-linecap="round"/>
<line x1="4.25" y1="11.25" x2="10.75" y2="11.25" stroke="#FF3D00" stroke-width="1.5" stroke-linecap="round"/>
<line x1="14.75" y1="11.25" x2="15.75" y2="11.25" stroke="#FF3D00" stroke-width="1.5" stroke-linecap="round"/>
<line x1="20.75" y1="11.25" x2="29.25" y2="11.25" stroke="#FF3D00" stroke-width="1.5" stroke-linecap="round"/>
<line x1="4.25" y1="15.75" x2="12.75" y2="15.75" stroke="#FF3D00" stroke-width="1.5" stroke-linecap="round"/>
<line x1="17.25" y1="15.75" x2="25.75" y2="15.75" stroke="#FF3D00" stroke-width="1.5" stroke-linecap="round"/>
<line x1="4.25" y1="20.75" x2="12.75" y2="20.75" stroke="#FF3D00" stroke-width="1.5" stroke-linecap="round"/>
<line x1="16.25" y1="20.75" x2="35.25" y2="20.75" stroke="#FF3D00" stroke-width="1.5" stroke-linecap="round"/>
<line x1="4.25" y1="25.75" x2="23.25" y2="25.75" stroke="#FF3D00" stroke-width="1.5" stroke-linecap="round"/>
<defs>
<clipPath id="clip0_189_20999">
<rect width="12" height="12" fill="white" transform="translate(24 33)"/>
</clipPath>
</defs>
</svg>
