<svg width="301" height="56" viewBox="0 0 301 56" fill="none" xmlns="http://www.w3.org/2000/svg">
<path d="M81.9291 15.0414C81.7047 14.1134 81.5941 13.1616 81.5997 12.207C81.5915 11.1995 81.702 10.1945 81.9291 9.21284C82.1407 8.31073 82.5089 7.45273 83.0169 6.67782C83.516 5.94001 84.183 5.33116 84.9631 4.90131C85.8489 4.45236 86.8354 4.23925 87.8275 4.28253C88.4428 4.27142 89.0551 4.37289 89.6339 4.58194C90.188 4.78373 90.7042 5.07725 91.1609 5.45023C91.6109 5.8074 91.9958 6.23958 92.2987 6.72772C92.6069 7.21545 92.8076 7.76322 92.8875 8.33457H97.8079C97.6856 7.08509 97.3122 5.87319 96.71 4.77157C96.1482 3.77007 95.3955 2.88847 94.4944 2.17666C93.5992 1.46588 92.5856 0.918551 91.5003 0.55984C90.3149 0.173749 89.0741 -0.0150634 87.8275 0.000938055C86.1928 -0.0190201 84.5717 0.300433 83.0668 0.939095C81.6963 1.5301 80.4729 2.41611 79.4839 3.534C78.4935 4.66135 77.737 5.97423 77.2582 7.39641C76.7214 8.94256 76.4579 10.5704 76.4798 12.207C76.4628 13.8106 76.7263 15.4048 77.2582 16.9177C77.7378 18.3216 78.4947 19.6147 79.4839 20.7202C80.4801 21.8152 81.7027 22.6803 83.0668 23.2553C85.8518 24.4122 88.9621 24.5186 91.8196 23.5547C92.9786 23.1424 94.0412 22.4978 94.9422 21.6603C95.8432 20.8228 96.5637 19.8101 97.0593 18.6842C97.6157 17.4476 97.9534 16.1239 98.0574 14.7719H93.1171C93.0042 16.1744 92.4445 17.5036 91.5202 18.5645C91.0369 19.0401 90.4571 19.4065 89.8201 19.6389C89.183 19.8714 88.5036 19.9644 87.8275 19.9118C86.8189 19.9452 85.8187 19.7183 84.9232 19.2531C84.1644 18.848 83.5114 18.2703 83.0169 17.5664C82.5136 16.8107 82.1455 15.9732 81.9291 15.0913V15.0414ZM111.661 23.7443H116.262V13.3647C116.262 12.4168 116.172 11.471 115.992 10.5402C115.825 9.75285 115.484 9.01283 114.994 8.37449C114.511 7.75192 113.87 7.26959 113.138 6.97723C112.182 6.6173 111.165 6.44778 110.144 6.47821C109.22 6.49003 108.311 6.71548 107.489 7.13692C106.551 7.60648 105.774 8.34258 105.253 9.25276H105.163V0.599762H100.562V23.6645H105.163V14.8917C105.058 13.6078 105.359 12.3233 106.022 11.2189C106.358 10.8237 106.786 10.5157 107.267 10.3211C107.748 10.1265 108.27 10.051 108.786 10.1011C109.222 10.0556 109.663 10.1235 110.065 10.2984C110.467 10.4733 110.818 10.7491 111.082 11.0991C111.571 12.0537 111.795 13.1223 111.731 14.1931L111.661 23.7443ZM123.088 13.5743C123.121 13.2014 123.195 12.8332 123.308 12.4764C123.427 12.0491 123.635 11.6514 123.917 11.3087C124.232 10.9225 124.627 10.6092 125.074 10.3905C125.645 10.1217 126.271 9.99169 126.901 10.0113C127.358 9.96932 127.818 10.0251 128.252 10.1748C128.685 10.3245 129.082 10.5647 129.416 10.8796C130.035 11.6384 130.432 12.5538 130.564 13.5244L123.088 13.5743ZM123.088 16.4886H135.164C135.255 15.238 135.144 13.9811 134.835 12.7659C134.559 11.6169 134.057 10.5346 133.358 9.58212C132.679 8.637 131.782 7.86999 130.743 7.34651C129.587 6.77373 128.31 6.4895 127.02 6.51814C125.832 6.50771 124.654 6.73859 123.557 7.1968C122.535 7.6271 121.613 8.26416 120.848 9.06796C120.084 9.87177 119.494 10.825 119.116 11.8676C118.705 12.9723 118.499 14.1424 118.507 15.3208C118.49 16.5349 118.693 17.7421 119.106 18.8838C119.484 19.9178 120.072 20.8625 120.833 21.6584C121.582 22.4529 122.499 23.07 123.517 23.4648C124.65 23.9011 125.857 24.1146 127.07 24.0936C128.783 24.1455 130.472 23.6944 131.931 22.7962C133.413 21.7549 134.475 20.219 134.925 18.4647H130.883C130.654 19.0828 130.221 19.6041 129.655 19.9418C128.838 20.4499 127.883 20.6929 126.922 20.6375C125.96 20.5821 125.04 20.231 124.286 19.6324C123.496 18.762 123.068 17.6236 123.088 16.4486V16.4886ZM158.529 23.6944H163.12V12.4665C163.154 11.5252 163.004 10.5863 162.68 9.70188C162.419 8.98695 161.987 8.3464 161.423 7.83555C160.856 7.36305 160.191 7.02218 159.477 6.83751C158.677 6.61683 157.851 6.50932 157.022 6.51814C155.96 6.50509 154.918 6.80726 154.027 7.38643C153.247 7.90149 152.57 8.55822 152.031 9.32263C151.661 8.37589 150.949 7.60287 150.035 7.15688C149.129 6.73717 148.139 6.52899 147.141 6.54808C146.118 6.52714 145.107 6.77126 144.207 7.25669C143.344 7.75117 142.604 8.43337 142.041 9.25276H141.971V6.92733H137.64V23.6645H142.241V13.9535C142.207 13.2695 142.33 12.5868 142.6 11.9575C142.772 11.5494 143.031 11.1836 143.358 10.8855C143.685 10.5873 144.074 10.3639 144.496 10.2308C144.779 10.1488 145.07 10.1019 145.364 10.0911C145.944 10.0606 146.521 10.192 147.031 10.4704C147.403 10.7049 147.687 11.0558 147.84 11.4684C148.009 11.8943 148.101 12.3474 148.109 12.8058V23.6645H152.71V14.3428C152.711 13.8285 152.748 13.315 152.82 12.8058C152.887 12.33 153.039 11.8702 153.269 11.4485C153.493 11.0387 153.819 10.6947 154.217 10.4504C154.671 10.209 155.18 10.0887 155.694 10.1011C156.226 10.0798 156.755 10.1931 157.231 10.4305C157.597 10.6278 157.898 10.9257 158.099 11.2888C158.297 11.6957 158.419 12.1354 158.459 12.5862C158.499 13.0852 158.519 13.6142 158.519 14.1731L158.529 23.6944ZM166.104 4.33243H170.665V0.599762H166.074L166.104 4.33243ZM166.104 23.6545H170.665V6.92733H166.074L166.104 23.6545ZM177.461 13.4944C177.492 13.122 177.562 12.7539 177.671 12.3966C177.809 11.9779 178.03 11.5911 178.32 11.2588C178.638 10.8724 179.037 10.5592 179.487 10.3406C180.06 10.0687 180.691 9.9419 181.324 9.97135C181.777 9.9284 182.234 9.98276 182.664 10.1308C183.094 10.2788 183.488 10.5171 183.819 10.8297C184.447 11.588 184.848 12.5082 184.977 13.4845L177.461 13.4944ZM177.461 16.4886H189.628C189.716 15.2386 189.609 13.9824 189.308 12.7659C189.009 11.6162 188.49 10.5351 187.781 9.58212C187.1 8.6519 186.212 7.89327 185.186 7.36647C184.033 6.79871 182.759 6.51796 181.474 6.54808C180.285 6.5294 179.106 6.75708 178.01 7.21676C176.994 7.65273 176.074 8.28723 175.306 9.0831C174.538 9.88686 173.946 10.8421 173.569 11.8876C173.158 12.9955 172.951 14.169 172.96 15.3508C172.939 16.5619 173.142 17.7665 173.559 18.9038C173.93 19.9441 174.519 20.8933 175.286 21.6883C176.038 22.4767 176.955 23.09 177.97 23.4848C179.107 23.9219 180.316 24.1354 181.533 24.1136C183.242 24.1641 184.928 23.713 186.384 22.8161C187.871 21.78 188.934 20.2419 189.378 18.4846H185.266C185.038 19.1028 184.604 19.6241 184.038 19.9617C183.22 20.4656 182.267 20.707 181.307 20.6535C180.347 20.6 179.427 20.2541 178.669 19.6623C177.885 18.7894 177.461 17.6518 177.481 16.4786L177.461 16.4886ZM194.139 5.58996H193.38V4.48214H194.378C194.478 4.48525 194.577 4.50904 194.668 4.552C194.748 4.59033 194.819 4.64468 194.877 4.71168C194.938 4.79149 194.966 4.89126 194.957 4.99114C194.957 5.25063 194.877 5.41031 194.728 5.48018C194.534 5.55586 194.327 5.59314 194.119 5.58996H194.139ZM195.855 8.07508L194.678 6.23869C194.83 6.22081 194.981 6.18737 195.127 6.13888C195.259 6.0988 195.379 6.02681 195.476 5.92929C195.584 5.84039 195.669 5.72762 195.726 5.59994C195.787 5.43406 195.814 5.25756 195.805 5.08096C195.827 4.89167 195.798 4.70012 195.723 4.52513C195.648 4.35015 195.528 4.19775 195.376 4.08292C194.999 3.86347 194.564 3.76262 194.129 3.79349H192.512V8.14494H193.38V6.27861H193.889L194.887 8.10502L195.855 8.07508ZM196.953 5.93927C196.954 6.3569 196.872 6.77058 196.714 7.15688C196.573 7.50861 196.366 7.83035 196.105 8.10502C195.85 8.38054 195.536 8.59539 195.187 8.73378C194.831 8.88915 194.447 8.96738 194.059 8.96333C193.668 8.96729 193.28 8.88909 192.921 8.73378C192.578 8.58891 192.269 8.37486 192.013 8.10502C191.752 7.83035 191.545 7.50861 191.404 7.15688C191.245 6.77058 191.164 6.3569 191.164 5.93927C191.164 5.52811 191.245 5.12096 191.404 4.74163C191.539 4.37217 191.746 4.03303 192.013 3.74359C192.277 3.48528 192.584 3.27577 192.921 3.1248C193.282 2.9748 193.668 2.89682 194.059 2.89525C194.446 2.89631 194.83 2.97433 195.187 3.1248C195.535 3.26946 195.851 3.484 196.113 3.7552C196.376 4.02641 196.58 4.34853 196.714 4.7017C196.872 5.08104 196.954 5.48819 196.953 5.89935V5.93927ZM197.951 5.89935C197.962 5.37905 197.861 4.86249 197.656 4.38407C197.452 3.90565 197.147 3.47636 196.763 3.1248C196.429 2.81337 196.04 2.56638 195.616 2.39623C195.139 2.20953 194.631 2.11472 194.119 2.11678C193.606 2.11301 193.098 2.20788 192.622 2.39623C192.155 2.56579 191.728 2.8271 191.364 3.16472C190.999 3.50325 190.704 3.91016 190.496 4.36237C190.277 4.85873 190.168 5.39673 190.176 5.93927C190.141 6.71669 190.356 7.48493 190.791 8.13024C191.226 8.77555 191.858 9.26364 192.592 9.52223C193.557 9.88437 194.621 9.88437 195.586 9.52223C196.053 9.35494 196.481 9.09336 196.843 8.75375C197.208 8.41522 197.503 8.00831 197.712 7.5561C197.931 7.05274 198.04 6.50823 198.031 5.95923" fill="#8C9091" fill-opacity="0.8"/>
<path d="M52.8961 41.3598C52.9197 41.0208 52.9833 40.6858 53.0857 40.3617C53.1899 39.9725 53.3734 39.6089 53.6247 39.2938C53.9138 38.9424 54.2744 38.6566 54.6826 38.4555C55.203 38.2106 55.7746 38.0942 56.3493 38.1162C56.7645 38.077 57.1832 38.1271 57.5774 38.2631C57.9716 38.3991 58.3321 38.6178 58.6348 38.9046C59.1849 39.6016 59.5304 40.4378 59.6329 41.3199L52.8961 41.3598ZM49.2632 39.7829C48.8839 40.7906 48.6944 41.8599 48.7043 42.9367C48.6908 44.0421 48.8767 45.1409 49.2533 46.1803C49.6147 47.1362 50.1761 48.0039 50.9 48.7253C51.5832 49.446 52.4186 50.0051 53.3452 50.3621C54.3841 50.7553 55.4881 50.9484 56.5988 50.931C58.1559 50.9782 59.6928 50.5688 61.0201 49.7533C62.3675 48.7844 63.329 47.3704 63.7348 45.7611H59.9622C59.7699 46.3347 59.3903 46.8268 58.8843 47.1584C58.1366 47.6135 57.2677 47.8296 56.3939 47.7779C55.5201 47.7262 54.6828 47.4091 53.9939 46.869C53.2801 46.0412 52.9215 44.9654 52.9959 43.8748H63.8745C63.9699 42.7504 63.8822 41.6179 63.615 40.5214C63.366 39.5171 62.9291 38.5689 62.3276 37.7269C61.7053 36.8865 60.8953 36.203 59.9622 35.7308C58.9116 35.1971 57.7472 34.9265 56.5689 34.9424C55.4858 34.9359 54.4128 35.1498 53.4151 35.5712C52.4832 35.9598 51.6421 36.5374 50.9446 37.2674C50.2472 37.9975 49.7087 38.8642 49.363 39.8128L49.2632 39.7829ZM32.2467 43.2062C32.2367 44.2829 32.4262 45.3522 32.8056 46.36C33.1675 47.2785 33.7029 48.1189 34.3825 48.8351C35.0749 49.5254 35.9045 50.0626 36.8177 50.412C37.8254 50.8049 38.9 50.9981 39.9815 50.9809C41.7793 51.0639 43.548 50.505 44.9717 49.404C46.3376 48.2308 47.1872 46.5674 47.337 44.7731H43.1852C43.101 45.6149 42.7515 46.4083 42.1871 47.0386C41.8805 47.3314 41.5163 47.5572 41.1176 47.7015C40.719 47.8459 40.2947 47.9056 39.8717 47.877C39.2918 47.8932 38.7197 47.7407 38.2249 47.4379C37.7785 47.1518 37.4086 46.7613 37.147 46.3001C36.8698 45.8103 36.6775 45.2771 36.5782 44.7232C36.4603 44.1684 36.3968 43.6035 36.3885 43.0365C36.3968 42.4562 36.4603 41.8781 36.5782 41.3099C36.6817 40.7526 36.8845 40.2185 37.177 39.733C37.4383 39.2527 37.8072 38.8393 38.2549 38.5254C38.7543 38.2153 39.334 38.0591 39.9216 38.0762C40.2887 38.0376 40.6598 38.0717 41.0137 38.1768C41.3675 38.2819 41.6972 38.4557 41.9837 38.6885C42.2702 38.9212 42.5079 39.2082 42.6833 39.533C42.8586 39.8578 42.9681 40.2141 43.0055 40.5813C43.0104 40.6211 43.0104 40.6613 43.0055 40.7011H47.1075C47.0829 39.8464 46.8611 39.009 46.4594 38.2542C46.0578 37.4993 45.4871 36.8475 44.792 36.3496C44.1174 35.8901 43.3675 35.5523 42.5764 35.3516C41.7254 35.1121 40.8455 34.9912 39.9615 34.9923C38.8295 34.9807 37.7066 35.1944 36.658 35.6211C35.7265 36.0109 34.8918 36.6003 34.2128 37.3477C33.5291 38.1031 33.0122 38.9941 32.6958 39.9625C32.3449 41.0249 32.1696 42.1373 32.1768 43.2561L32.2467 43.2062ZM22.1465 42.6373L16.6273 50.6216H21.3181L24.4719 45.811L27.6357 50.6216H32.4762L26.8772 42.5175L31.8674 35.4115H27.2565L24.6017 39.4036L21.9169 35.4115H17.1363L22.1465 42.6373ZM15.779 29.543H0V50.6016H15.9686V46.7093H4.6309V41.5694H14.8408V37.9665H4.6309V33.4553H15.779V29.543ZM10.4096 8.8736L18.6434 0.599854H12.8647L4.6309 9.2828V0.599854H0V21.6186H4.6309V14.8319L7.28569 12.1472L13.5933 21.6186H19.4119L10.4096 8.8736ZM30.2306 14.0035C30.239 14.6166 30.1821 15.2289 30.061 15.8299C29.9511 16.3869 29.7451 16.9205 29.4521 17.4068C29.1784 17.8872 28.7824 18.2867 28.3044 18.5646C27.7543 18.8531 27.1388 18.9941 26.5179 18.9738C25.9033 18.9952 25.2939 18.8541 24.7514 18.5646C24.2846 18.2973 23.8932 17.9162 23.6136 17.4567C23.3207 16.9704 23.1147 16.4368 23.0048 15.8798C22.8888 15.2915 22.8319 14.693 22.8351 14.0933C22.8317 13.4871 22.8886 12.8819 23.0048 12.2869C23.1137 11.7296 23.3198 11.1959 23.6136 10.71C23.9167 10.2188 24.3461 9.81793 24.8569 9.54933C25.3678 9.28073 25.9414 9.15421 26.5179 9.18299C27.1383 9.15538 27.7548 9.29315 28.3044 9.58221C28.7694 9.85097 29.163 10.2275 29.4521 10.6801C29.746 11.1659 29.9521 11.6997 30.061 12.257C30.1772 12.852 30.234 13.4571 30.2306 14.0634V14.0035ZM33.8635 17.3669C34.2528 16.3099 34.4423 15.1897 34.4224 14.0634C34.4424 12.9339 34.2529 11.8104 33.8635 10.7499C33.526 9.79989 32.9848 8.93514 32.278 8.21623C31.5712 7.49732 30.7157 6.94163 29.7715 6.58809C27.6746 5.81596 25.3712 5.81596 23.2743 6.58809C22.3362 6.94815 21.4868 7.50634 20.784 8.22458C20.0813 8.94281 19.5418 9.80418 19.2023 10.7499C18.8224 11.8129 18.6332 12.9346 18.6434 14.0634C18.6234 15.1897 18.8129 16.3099 19.2023 17.3669C19.5472 18.3088 20.0842 19.1687 20.7792 19.892C21.4886 20.5803 22.3307 21.1168 23.2543 21.4689C24.2908 21.8572 25.3912 22.0468 26.4979 22.0278C27.6112 22.0477 28.7183 21.8581 29.7615 21.4689C30.7012 21.1179 31.5531 20.5664 32.258 19.8529C32.9629 19.1393 33.504 18.2808 33.8435 17.337L33.8635 17.3669ZM40.5803 15.7601C40.4607 15.2058 40.4005 14.6404 40.4006 14.0734C40.4006 13.4932 40.4608 12.9145 40.5803 12.3468C40.6901 11.7913 40.8925 11.2582 41.1791 10.7699C41.458 10.2984 41.836 9.89322 42.2869 9.58221C42.791 9.26481 43.3782 9.10496 43.9736 9.12311C44.7068 9.047 45.4405 9.26155 46.0172 9.72064C46.5939 10.1797 46.9674 10.8467 47.0576 11.5783C47.0526 11.6214 47.0526 11.6649 47.0576 11.708H51.1595C51.1286 10.811 50.8821 9.93466 50.4409 9.15305C50.0564 8.46417 49.533 7.86263 48.9039 7.38652C48.2253 6.89914 47.4647 6.53744 46.6583 6.31862C45.8074 6.07917 44.9275 5.95827 44.0435 5.95933C42.9042 5.93839 41.7729 6.15243 40.72 6.58809C39.7862 6.97895 38.9485 7.56808 38.2648 8.3147C37.5845 9.07634 37.0681 9.96981 36.7478 10.9395C36.388 12.0103 36.2092 13.1335 36.2189 14.263C36.2089 15.3398 36.3984 16.4091 36.7778 17.4168C37.1374 18.336 37.6769 19.1741 38.3646 19.882C39.056 20.5736 39.8859 21.111 40.7999 21.4589C41.8051 21.8494 42.8753 22.0458 43.9537 22.0377C45.7496 22.1071 47.5138 21.5496 48.9439 20.4608C50.2988 19.2791 51.146 17.6204 51.3092 15.8299H47.2272C47.1451 16.6694 46.7952 17.4601 46.2292 18.0855C45.9217 18.3765 45.5571 18.6004 45.1585 18.743C44.7599 18.8857 44.336 18.9438 43.9137 18.9139C43.3295 18.9407 42.7512 18.7874 42.257 18.4747C41.8116 18.1906 41.4445 17.7994 41.1891 17.337C40.9113 16.8465 40.7158 16.3138 40.6102 15.7601H40.5803ZM63.3555 21.6285H67.5373V12.247C67.5493 11.3788 67.4656 10.5119 67.2878 9.66205C67.1544 8.93919 66.8574 8.25643 66.4195 7.66597C65.9709 7.10185 65.3826 6.66489 64.7129 6.39846C63.8336 6.06652 62.8977 5.91053 61.9583 5.93936C61.1187 5.95663 60.2935 6.16122 59.543 6.53819C58.7019 6.97349 58.0077 7.64692 57.547 8.47439H57.4571V0.599854H53.2155V21.6186H57.4072V13.6343C57.3139 12.4647 57.5897 11.2954 58.1957 10.2908C58.4968 9.93673 58.8793 9.66095 59.3104 9.48712C59.7415 9.3133 60.2083 9.24661 60.6708 9.29278C61.0701 9.2471 61.4744 9.30799 61.8426 9.46927C62.2107 9.63056 62.5296 9.88647 62.7667 10.211C63.2211 11.0763 63.4283 12.0501 63.3655 13.0254L63.3555 21.6285ZM66.1301 50.6316H70.3219V29.543H66.1301V50.6316ZM73.296 50.6316H77.4778V29.543H73.2761L73.296 50.6316ZM83.7954 41.3698C83.8272 41.0311 83.8941 40.6966 83.995 40.3717C84.107 39.9816 84.2971 39.6182 84.5539 39.3038C84.843 38.9524 85.2037 38.6666 85.6118 38.4655C86.1335 38.2246 86.7042 38.1084 87.2786 38.1261C87.6937 38.0877 88.1122 38.1381 88.5063 38.274C88.9004 38.41 89.261 38.6284 89.5641 38.9146C90.1142 39.6116 90.4597 40.4478 90.5621 41.3298L83.7954 41.3698ZM83.7954 44.0246H94.8138C94.8941 42.8847 94.793 41.7394 94.5143 40.6312C94.2614 39.5916 93.807 38.6117 93.177 37.7469C92.5547 36.9065 91.7447 36.223 90.8116 35.7508C89.7593 35.2219 88.596 34.9516 87.4183 34.9624C86.3289 34.9267 85.2442 35.1205 84.2345 35.5312C83.3024 35.9213 82.4607 36.4993 81.7618 37.2291C81.063 37.9589 80.5219 38.8248 80.1725 39.7729C79.7988 40.7822 79.6095 41.8504 79.6136 42.9267C79.6 44.0321 79.786 45.1309 80.1625 46.1703C80.5034 47.1201 81.0407 47.9873 81.7394 48.7153C82.4206 49.436 83.2567 49.9924 84.1846 50.3421C85.2216 50.7433 86.3265 50.9399 87.4382 50.921C88.9799 50.9664 90.5016 50.5643 91.8196 49.7633C93.155 48.8044 94.1148 47.4106 94.5343 45.821H90.8416C90.6287 46.3791 90.2352 46.8499 89.7238 47.1584C88.977 47.6149 88.1087 47.8327 87.2349 47.7828C86.3611 47.7328 85.5233 47.4175 84.8334 46.8789C84.1307 46.0449 83.7736 44.9737 83.8353 43.8848L83.7954 44.0246ZM107.02 50.5018H111.212V41.24C111.22 40.3748 111.133 39.5113 110.952 38.6651C110.825 37.9403 110.527 37.2561 110.084 36.669C109.642 36.0999 109.056 35.6589 108.387 35.3915C107.506 35.0652 106.572 34.9094 105.632 34.9324C104.733 34.9432 103.848 35.151 103.038 35.5412C102.164 35.9795 101.444 36.6719 100.972 37.5273H100.892V35.3716H96.8997V50.6216H101.091V42.6373C100.998 41.4646 101.274 40.2921 101.88 39.2839C102.184 38.933 102.567 38.6596 102.997 38.486C103.427 38.3125 103.893 38.2439 104.355 38.2858C104.756 38.2435 105.162 38.307 105.531 38.4698C105.901 38.6326 106.221 38.8891 106.461 39.214C106.901 40.0876 107.1 41.0623 107.04 42.0385L107.02 50.5018ZM117.878 44.6334C117.759 44.0791 117.699 43.5137 117.699 42.9467C117.699 42.3665 117.759 41.7878 117.878 41.2201C117.987 40.6643 118.19 40.131 118.477 39.6432C118.765 39.1978 119.142 38.8171 119.585 38.5254C120.089 38.2152 120.671 38.0559 121.262 38.0663C121.997 37.9874 122.733 38.2006 123.312 38.66C123.891 39.1194 124.266 39.788 124.356 40.5214C124.361 40.5645 124.361 40.6081 124.356 40.6512H128.458C128.433 39.7965 128.211 38.9591 127.81 38.2043C127.408 37.4494 126.837 36.7976 126.142 36.2997C125.445 35.8349 124.671 35.497 123.857 35.3017C123.009 35.0629 122.132 34.942 121.252 34.9424C120.117 34.9297 118.99 35.1435 117.938 35.5712C117.007 35.961 116.172 36.5504 115.493 37.2978C114.813 38.0558 114.297 38.946 113.976 39.9126C113.63 40.9761 113.455 42.0878 113.457 43.2062C113.446 44.2839 113.639 45.3541 114.026 46.36C114.376 47.2848 114.912 48.1275 115.603 48.8351C116.292 49.5242 117.119 50.0613 118.028 50.412C119.033 50.8025 120.104 50.9989 121.182 50.9909C122.98 51.0616 124.745 50.5001 126.172 49.404C127.533 48.2268 128.381 46.5656 128.538 44.7731H124.495C124.411 45.6149 124.062 46.4083 123.497 47.0386C123.191 47.3314 122.827 47.5572 122.428 47.7015C122.029 47.8459 121.605 47.9056 121.182 47.877C120.602 47.8932 120.03 47.7407 119.535 47.4379C119.088 47.1491 118.716 46.7594 118.447 46.3001C118.174 45.8084 117.982 45.2759 117.878 44.7232V44.6334ZM134.246 41.3298C134.277 40.991 134.344 40.6564 134.446 40.3318C134.553 39.9397 134.744 39.5753 135.005 39.2639C135.291 38.9068 135.652 38.6172 136.063 38.4156C136.584 38.1747 137.155 38.0585 137.729 38.0762C138.144 38.0416 138.562 38.0938 138.955 38.2295C139.349 38.3653 139.71 38.5816 140.015 38.8647C140.581 39.5608 140.944 40.4003 141.063 41.2899L134.246 41.3298ZM134.246 43.9846H145.225C145.306 42.8448 145.205 41.6994 144.925 40.5913C144.685 39.5642 144.251 38.5921 143.648 37.7269C143.019 36.8883 142.207 36.2054 141.273 35.7308C140.226 35.196 139.064 34.9254 137.889 34.9424C136.808 34.9182 135.734 35.1187 134.735 35.5312C133.803 35.9199 132.962 36.4975 132.265 37.2275C131.567 37.9576 131.029 38.8243 130.683 39.7729C130.301 40.7801 130.108 41.8493 130.114 42.9267C130.096 44.0325 130.282 45.1321 130.663 46.1703C131.012 47.1165 131.548 47.9822 132.24 48.7153C132.923 49.4339 133.759 49.9899 134.685 50.3421C135.723 50.7426 136.827 50.9391 137.939 50.921C139.496 50.9682 141.033 50.5588 142.36 49.7433C143.701 48.7899 144.663 47.3938 145.075 45.8011H141.223C141.013 46.3612 140.619 46.833 140.105 47.1384C139.357 47.5971 138.487 47.8162 137.611 47.7663C136.735 47.7163 135.895 47.3997 135.204 46.859C134.497 46.0275 134.139 44.9544 134.206 43.8649L134.246 43.9846ZM152.351 33.3156H162.561V29.543H147.71V50.6016H152.341V41.9486H161.153V38.3257H152.341L152.351 33.3156ZM174.587 42.8668C174.598 43.464 174.537 44.0603 174.407 44.6433C174.309 45.205 174.105 45.7433 173.809 46.2302C173.533 46.712 173.138 47.1143 172.661 47.3979C172.111 47.6865 171.495 47.8275 170.874 47.8071C170.259 47.8335 169.649 47.692 169.108 47.3979C168.641 47.1307 168.25 46.7495 167.97 46.2901C167.673 45.8023 167.467 45.2647 167.361 44.7032C167.241 44.1187 167.181 43.5234 167.182 42.9267C167.181 42.3234 167.241 41.7215 167.361 41.1302C167.462 40.5675 167.669 40.0291 167.97 39.5434C168.274 39.0525 168.704 38.6514 169.214 38.3813C169.724 38.1112 170.297 37.9818 170.874 38.0064C171.499 37.9855 172.117 38.1374 172.661 38.4455C173.126 38.7143 173.519 39.0908 173.809 39.5434C174.11 40.0283 174.313 40.5673 174.407 41.1302C174.537 41.72 174.598 42.3229 174.587 42.9267V42.8668ZM178.22 46.2302C178.972 44.0887 178.972 41.7547 178.22 39.6132C177.868 38.6793 177.319 37.8317 176.611 37.1275C175.904 36.4234 175.054 35.8791 174.118 35.5312C172.034 34.7848 169.755 34.7848 167.671 35.5312C166.732 35.8924 165.882 36.4521 165.179 37.1721C164.476 37.8921 163.937 38.7555 163.599 39.703C162.84 41.8434 162.84 44.1797 163.599 46.32C163.937 47.2652 164.475 48.1265 165.176 48.8451C165.876 49.5442 166.721 50.0823 167.651 50.422C168.687 50.8113 169.788 51.0009 170.894 50.9809C172.008 51.0008 173.115 50.8112 174.158 50.422C175.089 50.0788 175.936 49.5412 176.643 48.8451C177.343 48.1238 177.884 47.2636 178.23 46.32L178.22 46.2302ZM190.206 38.8847C190.444 38.9032 190.681 38.9365 190.915 38.9845V35.1021C190.617 35.0127 190.308 34.9624 189.997 34.9524C189.475 34.9522 188.957 35.033 188.46 35.1919C187.972 35.3495 187.508 35.5746 187.083 35.8606C186.649 36.1339 186.259 36.4703 185.925 36.8586C185.602 37.2587 185.336 37.7021 185.136 38.176H185.086V35.3716H181.094V50.6216H185.286V43.7551C185.263 43.1231 185.31 42.4904 185.426 41.8688C185.546 41.3 185.784 40.7628 186.124 40.2919C186.46 39.8411 186.902 39.4809 187.412 39.2439C188.021 38.974 188.682 38.8443 189.348 38.8647C189.611 38.8495 189.874 38.8495 190.137 38.8647L190.206 38.8847ZM192.512 50.5917H208.48V46.7292H197.123V41.5694H207.333V37.9665H197.173V33.4553H208.291V29.543H192.512V50.5917ZM224.978 50.5917L219.329 42.5175L224.319 35.4115H219.688L217.024 39.4036L214.339 35.4115H209.608L214.598 42.6373L209.129 50.6216H213.82L216.974 45.811L220.128 50.6216L224.978 50.5917ZM237.493 43.0066C237.494 43.6132 237.433 44.2183 237.314 44.813C237.215 45.3716 237.012 45.9065 236.715 46.3899C236.416 46.8498 236.012 47.2328 235.537 47.5077C234.781 47.9478 233.884 48.0813 233.032 47.8808C232.18 47.6803 231.437 47.1611 230.956 46.4298C230.658 45.9453 230.448 45.4113 230.338 44.8529C230.209 44.2594 230.146 43.6537 230.148 43.0465C230.148 42.4333 230.208 41.8215 230.328 41.2201C230.425 40.6611 230.628 40.1258 230.926 39.6432C231.22 39.1853 231.616 38.8025 232.084 38.5254C232.609 38.2266 233.207 38.0781 233.811 38.0962C234.416 38.07 235.015 38.219 235.537 38.5254C236.015 38.8043 236.422 39.1903 236.725 39.6531C237.03 40.1367 237.246 40.6706 237.364 41.23C237.491 41.8237 237.555 42.4293 237.553 43.0365L237.493 43.0066ZM241.326 46.1005C241.609 45.1279 241.751 44.1194 241.745 43.1064C241.746 42.0379 241.605 40.974 241.326 39.9426C241.076 39.0004 240.646 38.1157 240.058 37.3377C239.447 36.5331 238.65 35.8874 237.737 35.4549C236.823 35.0224 235.819 34.8159 234.809 34.8526C233.913 34.8495 233.027 35.0437 232.214 35.4215C231.389 35.8144 230.695 36.4385 230.218 37.2179H230.168V35.3716H226.176V55.9711H230.357V48.7353H230.417C230.917 49.4712 231.607 50.0576 232.413 50.432C233.23 50.8191 234.125 51.0137 235.028 51.0009C235.988 51.0286 236.94 50.8288 237.808 50.4176C238.675 50.0065 239.433 49.3958 240.019 48.6355C240.581 47.8818 241.003 47.0333 241.266 46.1304L241.326 46.1005ZM247.194 41.3897C247.223 41.0514 247.286 40.7169 247.384 40.3917C247.513 39.9815 247.728 39.6032 248.013 39.2816C248.299 38.96 248.649 38.7023 249.041 38.5254C249.562 38.2834 250.133 38.1672 250.708 38.186C251.123 38.1469 251.541 38.197 251.936 38.333C252.33 38.469 252.69 38.6877 252.993 38.9745C253.562 39.67 253.928 40.5093 254.051 41.3997L247.194 41.3897ZM247.194 44.0445H258.173C258.253 42.9047 258.152 41.7593 257.873 40.6512C257.616 39.6131 257.162 38.6339 256.536 37.7668C255.91 36.926 255.097 36.2426 254.161 35.7708C253.112 35.2419 251.952 34.9716 250.777 34.9823C249.691 34.9745 248.614 35.1884 247.614 35.6111C246.693 36.007 245.864 36.5878 245.177 37.3175C244.49 38.0471 243.961 38.91 243.621 39.8527C243.244 40.8614 243.052 41.9297 243.053 43.0066C243.044 44.1116 243.23 45.2095 243.601 46.2502C243.95 47.1963 244.486 48.062 245.178 48.7952C245.865 49.514 246.704 50.0698 247.634 50.422C248.667 50.8224 249.769 51.0189 250.877 51.0009C252.434 51.048 253.971 50.6386 255.299 49.8232C256.644 48.8747 257.607 47.4766 258.013 45.8809H254.271C254.052 46.4382 253.66 46.9105 253.153 47.2283C252.403 47.6842 251.533 47.9008 250.657 47.849C249.782 47.7973 248.943 47.4798 248.252 46.9388C247.539 46.1105 247.181 45.0351 247.254 43.9447L247.194 44.0445ZM275.898 50.5617C276.719 50.5721 277.54 50.5221 278.353 50.412V47.1983C277.927 47.2881 277.491 47.3283 277.056 47.3181C275.639 47.3181 275.289 46.9688 275.289 45.5516V38.0064H278.353V35.1919H275.289V30.6209H271.097V35.1919H268.872C266.546 35.1919 264.69 36.0702 263.882 37.9265H263.822V35.1919H259.83V50.4419H264.021V43.0165C264.021 40.1621 265.299 38.0263 269.541 38.0263H271.117V47.0087C271.117 50.0028 273.353 50.6316 275.918 50.6316L275.898 50.5617ZM292.885 48.2662C293.307 47.493 293.517 46.6218 293.493 45.7412C293.515 45.1222 293.37 44.5087 293.074 43.9647C292.808 43.4847 292.436 43.0717 291.986 42.757C291.506 42.4062 290.969 42.1396 290.4 41.9686C289.816 41.7687 289.224 41.5988 288.623 41.4596L286.876 41.0704C286.364 40.97 285.857 40.84 285.359 40.6811C284.967 40.5587 284.601 40.3623 284.282 40.1023C284.148 39.9903 284.042 39.8494 283.971 39.6903C283.9 39.5313 283.866 39.3581 283.872 39.1841C283.846 38.9 283.932 38.6168 284.112 38.3956C284.265 38.2122 284.46 38.0684 284.681 37.9764C284.93 37.8658 285.197 37.7983 285.469 37.7768C285.732 37.7622 285.995 37.7622 286.258 37.7768C286.948 37.7515 287.635 37.899 288.254 38.206C288.539 38.369 288.774 38.6066 288.934 38.8933C289.094 39.1799 289.173 39.5047 289.162 39.8328H293.154C293.105 38.9973 292.855 38.1859 292.426 37.4674C292.039 36.8598 291.516 36.3506 290.899 35.9804C290.26 35.5941 289.557 35.327 288.823 35.1919C288.044 35.0322 287.252 34.952 286.457 34.9524C285.647 34.9507 284.839 35.0242 284.042 35.1719C283.294 35.313 282.575 35.5795 281.916 35.9604C281.291 36.3169 280.768 36.8292 280.399 37.4475C279.991 38.1852 279.791 39.0201 279.82 39.8627C279.755 40.4572 279.855 41.0582 280.11 41.5993C280.381 42.065 280.757 42.4613 281.208 42.757C281.693 43.0795 282.225 43.3252 282.785 43.4856C283.368 43.6789 283.961 43.8421 284.561 43.9747C285.751 44.2225 286.922 44.556 288.064 44.9727C288.893 45.2921 289.312 45.7611 289.312 46.3899C289.329 46.7209 289.234 47.048 289.042 47.3181C288.869 47.5611 288.644 47.7623 288.384 47.9069C288.106 48.0545 287.811 48.1652 287.505 48.2363C287.196 48.2996 286.882 48.333 286.567 48.3361C286.167 48.3361 285.767 48.2858 285.379 48.1864C285.021 48.0975 284.682 47.9418 284.381 47.7273C284.084 47.5204 283.836 47.2514 283.653 46.9388C283.461 46.5841 283.368 46.1842 283.383 45.7811H279.391C279.387 46.618 279.598 47.442 280.003 48.1742C280.409 48.9063 280.995 49.5222 281.707 49.9629C282.406 50.3832 283.172 50.6803 283.972 50.8412C284.825 51.0219 285.695 51.1089 286.567 51.1007C287.421 51.106 288.274 51.0258 289.112 50.8611C289.903 50.7107 290.658 50.4128 291.338 49.9828C291.99 49.5754 292.532 49.0132 292.915 48.3461L292.885 48.2662ZM300.37 46.1803H295.729V50.7214H300.37V46.1803Z" fill="white" fill-opacity="0.8"/>
</svg>
