<svg width="132" height="20" viewBox="0 0 132 20" fill="none" xmlns="http://www.w3.org/2000/svg">
<path d="M2.27135 14.0308L11.2324 15.7514L11.9286 14.5497L3.96324 11.1081L2.27135 14.0308ZM6.4227 6.85946L13.393 12.0238L14.0892 10.8216L8.11513 3.93622L6.4227 6.85946ZM4.34054 10.4584L12.3059 13.9011L13.0157 12.673L6.0454 7.50919L4.34054 10.4584ZM10.393 0L8.51189 3.25405L14.4865 10.1405L15.3719 8.61405L10.393 0ZM0 17.9605H9.95676L10.8416 16.4341L1.88108 14.7135L0 17.9605ZM15.8005 13.94L18.1303 17.9605H20.7789L15.8005 9.35405L10.8222 17.9605H13.4708L15.8005 13.94Z" fill="white" fill-opacity="0.5"/>
<path d="M36.9889 17.9475H40.7834L41.6553 16.4081H36.9894L36.9889 17.9475ZM36.9889 13.673V15.2124H42.3456L43.237 13.673H36.9889ZM117.413 15.4984V10.9513H115.733V17.9475H117.139L121.18 13.3681V17.9475H122.859V10.9513H121.376L117.413 15.4984ZM46.8618 10.9513L42.8402 17.9475H44.8186L47.4672 13.3286L50.1353 17.9475H52.218L48.1964 10.9513H46.8618ZM34.7775 16.4075L30.7559 9.40539H29.3829L25.3607 16.4075H24.3521V20H25.9526V17.947H34.1851V20H35.7862V16.4075H34.7775ZM27.3651 16.4075L30.0137 11.7827L32.6818 16.4075H27.3651ZM89.6629 10.9513H81.8472V12.4908H88.7645L89.6629 10.9513ZM44.7986 10.9513H36.9894V12.4908H43.9072L44.7986 10.9513ZM130.408 10.9513L126.445 15.4984V10.9513H124.766V17.9475H126.177L130.213 13.3681V17.9475H131.892V10.9513H130.408ZM112.147 13.673H108.47V10.9513H106.791V17.9475H108.47V15.2124H112.147V17.9475H113.826V10.9513H112.147V13.673ZM91.7197 10.9513L87.698 17.9475H89.6829L92.3316 13.3286L94.9997 17.9475H97.0759L93.0537 10.9513H91.7197ZM75.1245 13.4594H72.5737V10.9454H70.8948V17.9475H75.1115C76.2505 17.9475 77.4348 17.3178 77.4348 15.6676C77.4283 13.4984 75.9056 13.4594 75.1245 13.4594ZM75.0272 16.467H72.5672V14.9081H75.0272C75.3132 14.9081 75.7494 14.9859 75.7494 15.6875C75.7494 16.3367 75.3916 16.467 75.0272 16.467ZM79.9472 10.9513H78.2878V17.954H79.9472V10.9513ZM56.4483 10.7821C53.6429 10.7821 52.3159 12.4973 52.3159 14.4135C52.3159 16.414 53.6105 18.0443 56.4483 18.0443C57.6845 18.0443 60.5478 17.473 60.5478 14.4135C60.5478 12.413 59.2661 10.7821 56.4483 10.7821ZM56.4289 16.5048C54.8083 16.5048 54.1251 15.5762 54.1251 14.433C54.1251 13.1789 54.9056 12.3411 56.4289 12.3411C58.1467 12.3411 58.7321 13.1789 58.7321 14.433C58.7321 15.9335 57.6067 16.5048 56.4289 16.5048ZM81.8472 17.9475H85.6413L86.5197 16.4081H81.8472V17.9475ZM81.8472 13.673V15.2124H87.2029L88.1007 13.673H81.8472ZM99.438 15.4594V10.9513H97.7591V17.9475H99.1716L103.213 13.407V17.9475H104.892V10.9513H103.48L99.438 15.4594ZM67.8753 13.8227C68.3175 13.634 68.6953 13.3292 68.6953 12.5686C68.6953 11.12 67.478 10.9513 66.6191 10.9513H62.0835V17.954H66.6975C68.8121 17.954 69.2483 16.7913 69.2483 15.7259C69.2548 14.5243 68.5716 14.0303 67.8753 13.8227ZM63.7429 12.4324H66.4305C66.8337 12.4324 67.0029 12.6405 67.0029 13.0432C67.0029 13.4589 66.7364 13.673 66.4305 13.673H63.7429V12.4324ZM66.6975 16.4665H63.7429V14.9659H66.6975C67.1721 14.9659 67.5175 15.0827 67.5175 15.7065C67.5175 16.2 67.3089 16.4665 66.6975 16.4665Z" fill="white" fill-opacity="0.5"/>
</svg>
