<svg width="60" height="15" viewBox="0 0 60 15" fill="none" xmlns="http://www.w3.org/2000/svg">
<g clip-path="url(#clip0_164_77)">
<path fill-rule="evenodd" clip-rule="evenodd" d="M59.0905 0.528243C59.0905 0.528243 57.9919 0.396484 56.6937 0.396484C55.4287 0.396484 54.3633 0.528243 54.3633 0.528243V4.64572H59.0905V0.528243Z" fill="#B6B6B6" fill-opacity="0.5"/>
<path fill-rule="evenodd" clip-rule="evenodd" d="M59.0905 10.2454H54.3633V14.4287C54.3633 14.4287 55.6951 14.5605 56.7601 14.5605C57.8256 14.5605 59.0905 14.3958 59.0905 14.3958V10.2454Z" fill="#B6B6B6" fill-opacity="0.5"/>
<path fill-rule="evenodd" clip-rule="evenodd" d="M51.5343 0.52832H45.7084L41.6471 5.56811H39.7495V0.52832H34.7227V14.4618H39.7495V9.22443H41.5805L45.6752 14.4618H51.9007L45.8084 7.05038L51.5343 0.52832Z" fill="white" fill-opacity="0.5"/>
<path fill-rule="evenodd" clip-rule="evenodd" d="M15.8795 0.52832H0V14.4618H5.09345V4.4811H10.7861V14.4618H15.8795V0.52832Z" fill="white" fill-opacity="0.5"/>
<path fill-rule="evenodd" clip-rule="evenodd" d="M18.3437 4.21761L17.6113 0.528355C17.6113 0.528355 22.3718 0.166016 25.3347 0.166016C28.2976 0.166016 31.8596 0.528355 31.8596 0.528355C31.8596 0.528355 32.9582 3.36118 32.9582 7.34691C32.9582 11.3326 31.8263 14.4619 31.8263 14.4619C31.8263 14.4619 28.4307 14.8242 25.3014 14.8242C22.1721 14.8242 17.6113 14.4619 17.6113 14.4619L18.3437 10.7726C18.3437 10.7726 21.5396 11.0032 24.2694 11.0032C26.9992 11.0032 28.0645 10.7726 28.0645 10.7726C28.0645 10.7726 28.1977 10.0809 28.2643 9.29032H21.7393V5.73286H28.2976C28.231 4.81055 28.0978 4.25055 28.0978 4.25055C28.0978 4.25055 25.8673 4.01997 23.9698 4.01997C22.039 3.98703 18.3437 4.21761 18.3437 4.21761Z" fill="white" fill-opacity="0.5"/>
</g>
<defs>
<clipPath id="clip0_164_77">
<rect width="59.0909" height="15" fill="white"/>
</clipPath>
</defs>
</svg>
