<svg width="47" height="33" viewBox="0 0 47 33" fill="none" xmlns="http://www.w3.org/2000/svg">
<path fill-rule="evenodd" clip-rule="evenodd" d="M41.8894 1.00941C43.9026 1.55294 45.4899 3.14471 46.0319 5.16353C47.0385 8.85176 46.9998 16.5388 46.9998 16.5388C46.9998 16.5388 46.9998 24.1871 46.0319 27.8753C45.4899 29.8941 43.9026 31.4859 41.8894 32.0294C38.2115 33 23.4999 33 23.4999 33C23.4999 33 8.82698 33 5.11036 31.9906C3.09719 31.4471 1.50988 29.8553 0.967871 27.8365C0 24.1871 0 16.5 0 16.5C0 16.5 0 8.85176 0.967871 5.16353C1.50988 3.14471 3.1359 1.51412 5.11036 0.970588C8.78827 0 23.4999 0 23.4999 0C23.4999 0 38.2115 0 41.8894 1.00941ZM31.0493 16.4998L18.8154 23.5657V9.43396L31.0493 16.4998Z" fill="#FF3D00"/>
</svg>
