<svg width="301" height="56" viewBox="0 0 301 56" fill="none" xmlns="http://www.w3.org/2000/svg">
<path d="M81.9291 15.0414C81.7047 14.1134 81.5941 13.1616 81.5997 12.207C81.5915 11.1995 81.702 10.1945 81.9291 9.21284C82.1407 8.31073 82.5089 7.45273 83.0169 6.67782C83.516 5.94001 84.183 5.33116 84.9631 4.90131C85.8489 4.45236 86.8354 4.23925 87.8275 4.28253C88.4428 4.27142 89.0551 4.37289 89.6339 4.58194C90.188 4.78373 90.7042 5.07725 91.1609 5.45023C91.6109 5.8074 91.9958 6.23958 92.2987 6.72772C92.6069 7.21545 92.8076 7.76322 92.8875 8.33457H97.8079C97.6856 7.08509 97.3122 5.87319 96.71 4.77157C96.1482 3.77007 95.3955 2.88847 94.4944 2.17666C93.5992 1.46588 92.5856 0.918551 91.5003 0.55984C90.3149 0.173749 89.0741 -0.0150634 87.8275 0.000938055C86.1928 -0.0190201 84.5717 0.300433 83.0668 0.939095C81.6963 1.5301 80.4729 2.41611 79.4839 3.534C78.4935 4.66135 77.737 5.97423 77.2582 7.39641C76.7214 8.94256 76.4579 10.5704 76.4798 12.207C76.4628 13.8106 76.7263 15.4048 77.2582 16.9177C77.7378 18.3216 78.4947 19.6147 79.4839 20.7202C80.4801 21.8152 81.7027 22.6803 83.0668 23.2553C85.8518 24.4122 88.9621 24.5186 91.8196 23.5547C92.9786 23.1424 94.0412 22.4978 94.9422 21.6603C95.8432 20.8228 96.5637 19.8101 97.0593 18.6842C97.6157 17.4476 97.9534 16.1239 98.0574 14.7719H93.1171C93.0042 16.1744 92.4445 17.5036 91.5202 18.5645C91.0369 19.0401 90.4571 19.4065 89.8201 19.6389C89.183 19.8714 88.5036 19.9644 87.8275 19.9118C86.8189 19.9452 85.8187 19.7183 84.9232 19.2531C84.1644 18.848 83.5114 18.2703 83.0169 17.5664C82.5136 16.8107 82.1455 15.9732 81.9291 15.0913V15.0414ZM111.661 23.7443H116.262V13.3647C116.262 12.4168 116.172 11.471 115.992 10.5402C115.825 9.75285 115.484 9.01283 114.994 8.37449C114.511 7.75192 113.87 7.26959 113.138 6.97723C112.182 6.6173 111.165 6.44778 110.144 6.47821C109.22 6.49003 108.311 6.71548 107.489 7.13692C106.551 7.60648 105.774 8.34258 105.253 9.25276H105.163V0.599762H100.562V23.6645H105.163V14.8917C105.058 13.6078 105.359 12.3233 106.022 11.2189C106.358 10.8237 106.786 10.5157 107.267 10.3211C107.748 10.1265 108.27 10.051 108.786 10.1011C109.222 10.0556 109.663 10.1235 110.065 10.2984C110.467 10.4733 110.818 10.7491 111.082 11.0991C111.571 12.0537 111.795 13.1223 111.731 14.1931L111.661 23.7443ZM123.088 13.5743C123.121 13.2014 123.195 12.8332 123.308 12.4764C123.427 12.0491 123.635 11.6514 123.917 11.3087C124.232 10.9225 124.627 10.6092 125.074 10.3905C125.645 10.1217 126.271 9.99169 126.901 10.0113C127.358 9.96932 127.818 10.0251 128.252 10.1748C128.685 10.3245 129.082 10.5647 129.416 10.8796C130.035 11.6384 130.432 12.5538 130.564 13.5244L123.088 13.5743ZM123.088 16.4886H135.164C135.255 15.238 135.144 13.9811 134.835 12.7659C134.559 11.6169 134.057 10.5346 133.358 9.58212C132.679 8.637 131.782 7.86999 130.743 7.34651C129.587 6.77373 128.31 6.4895 127.02 6.51814C125.832 6.50771 124.654 6.73859 123.557 7.1968C122.535 7.6271 121.613 8.26416 120.848 9.06796C120.084 9.87177 119.494 10.825 119.116 11.8676C118.705 12.9723 118.499 14.1424 118.507 15.3208C118.49 16.5349 118.693 17.7421 119.106 18.8838C119.484 19.9178 120.072 20.8625 120.833 21.6584C121.582 22.4529 122.499 23.07 123.517 23.4648C124.65 23.9011 125.857 24.1146 127.07 24.0936C128.783 24.1455 130.472 23.6944 131.931 22.7962C133.413 21.7549 134.475 20.219 134.925 18.4647H130.883C130.654 19.0828 130.221 19.6041 129.655 19.9418C128.838 20.4499 127.883 20.6929 126.922 20.6375C125.96 20.5821 125.04 20.231 124.286 19.6324C123.496 18.762 123.068 17.6236 123.088 16.4486V16.4886ZM158.529 23.6944H163.12V12.4665C163.154 11.5252 163.004 10.5863 162.68 9.70188C162.419 8.98695 161.987 8.3464 161.423 7.83555C160.856 7.36305 160.191 7.02218 159.477 6.83751C158.677 6.61683 157.851 6.50932 157.022 6.51814C155.96 6.50509 154.918 6.80726 154.027 7.38643C153.247 7.90149 152.57 8.55822 152.031 9.32263C151.661 8.37589 150.949 7.60287 150.035 7.15688C149.129 6.73717 148.139 6.52899 147.141 6.54808C146.118 6.52714 145.107 6.77126 144.207 7.25669C143.344 7.75117 142.604 8.43337 142.041 9.25276H141.971V6.92733H137.64V23.6645H142.241V13.9535C142.207 13.2695 142.33 12.5868 142.6 11.9575C142.772 11.5494 143.031 11.1836 143.358 10.8855C143.685 10.5873 144.074 10.3639 144.496 10.2308C144.779 10.1488 145.07 10.1019 145.364 10.0911C145.944 10.0606 146.521 10.192 147.031 10.4704C147.403 10.7049 147.687 11.0558 147.84 11.4684C148.009 11.8943 148.101 12.3474 148.109 12.8058V23.6645H152.71V14.3428C152.711 13.8285 152.748 13.315 152.82 12.8058C152.887 12.33 153.039 11.8702 153.269 11.4485C153.493 11.0387 153.819 10.6947 154.217 10.4504C154.671 10.209 155.18 10.0887 155.694 10.1011C156.226 10.0798 156.755 10.1931 157.231 10.4305C157.597 10.6278 157.898 10.9257 158.099 11.2888C158.297 11.6957 158.419 12.1354 158.459 12.5862C158.499 13.0852 158.519 13.6142 158.519 14.1731L158.529 23.6944ZM166.104 4.33243H170.665V0.599762H166.074L166.104 4.33243ZM166.104 23.6545H170.665V6.92733H166.074L166.104 23.6545ZM177.461 13.4944C177.492 13.122 177.562 12.7539 177.671 12.3966C177.809 11.9779 178.03 11.5911 178.32 11.2588C178.638 10.8724 179.037 10.5592 179.487 10.3406C180.06 10.0687 180.691 9.9419 181.324 9.97135C181.777 9.9284 182.234 9.98276 182.664 10.1308C183.094 10.2788 183.488 10.5171 183.819 10.8297C184.447 11.588 184.848 12.5082 184.977 13.4845L177.461 13.4944ZM177.461 16.4886H189.628C189.716 15.2386 189.609 13.9824 189.308 12.7659C189.009 11.6162 188.49 10.5351 187.781 9.58212C187.1 8.6519 186.212 7.89327 185.186 7.36647C184.033 6.79871 182.759 6.51796 181.474 6.54808C180.285 6.5294 179.106 6.75708 178.01 7.21676C176.994 7.65273 176.074 8.28723 175.306 9.0831C174.538 9.88686 173.946 10.8421 173.569 11.8876C173.158 12.9955 172.951 14.169 172.96 15.3508C172.939 16.5619 173.142 17.7665 173.559 18.9038C173.93 19.9441 174.519 20.8933 175.286 21.6883C176.038 22.4767 176.955 23.09 177.97 23.4848C179.107 23.9219 180.316 24.1354 181.533 24.1136C183.242 24.1641 184.928 23.713 186.384 22.8161C187.871 21.78 188.934 20.2419 189.378 18.4846H185.266C185.038 19.1028 184.604 19.6241 184.038 19.9617C183.22 20.4656 182.267 20.707 181.307 20.6535C180.347 20.6 179.427 20.2541 178.669 19.6623C177.885 18.7894 177.461 17.6518 177.481 16.4786L177.461 16.4886ZM194.139 5.58996H193.38V4.48214H194.378C194.478 4.48525 194.577 4.50904 194.668 4.552C194.748 4.59033 194.819 4.64468 194.877 4.71168C194.938 4.79149 194.966 4.89126 194.957 4.99114C194.957 5.25063 194.877 5.41031 194.728 5.48018C194.534 5.55586 194.327 5.59314 194.119 5.58996H194.139ZM195.855 8.07508L194.678 6.23869C194.83 6.22081 194.981 6.18737 195.127 6.13888C195.259 6.0988 195.379 6.02681 195.476 5.92929C195.584 5.84039 195.669 5.72762 195.726 5.59994C195.787 5.43406 195.814 5.25756 195.805 5.08096C195.827 4.89167 195.798 4.70012 195.723 4.52513C195.648 4.35015 195.528 4.19775 195.376 4.08292C194.999 3.86347 194.564 3.76262 194.129 3.79349H192.512V8.14494H193.38V6.27861H193.889L194.887 8.10502L195.855 8.07508ZM196.953 5.93927C196.954 6.3569 196.872 6.77058 196.714 7.15688C196.573 7.50861 196.366 7.83035 196.105 8.10502C195.85 8.38054 195.536 8.59539 195.187 8.73378C194.831 8.88915 194.447 8.96738 194.059 8.96333C193.668 8.96729 193.28 8.88909 192.921 8.73378C192.578 8.58891 192.269 8.37486 192.013 8.10502C191.752 7.83035 191.545 7.50861 191.404 7.15688C191.245 6.77058 191.164 6.3569 191.164 5.93927C191.164 5.52811 191.245 5.12096 191.404 4.74163C191.539 4.37217 191.746 4.03303 192.013 3.74359C192.277 3.48528 192.584 3.27577 192.921 3.1248C193.282 2.9748 193.668 2.89682 194.059 2.89525C194.446 2.89631 194.83 2.97433 195.187 3.1248C195.535 3.26946 195.851 3.484 196.113 3.7552C196.376 4.02641 196.58 4.34853 196.714 4.7017C196.872 5.08104 196.954 5.48819 196.953 5.89935V5.93927ZM197.951 5.89935C197.962 5.37905 197.861 4.86249 197.656 4.38407C197.452 3.90565 197.147 3.47636 196.763 3.1248C196.429 2.81337 196.04 2.56638 195.616 2.39623C195.139 2.20953 194.631 2.11472 194.119 2.11678C193.606 2.11301 193.098 2.20788 192.622 2.39623C192.155 2.56579 191.728 2.8271 191.364 3.16472C190.999 3.50325 190.704 3.91016 190.496 4.36237C190.277 4.85873 190.168 5.39673 190.176 5.93927C190.141 6.71669 190.356 7.48493 190.791 8.13024C191.226 8.77555 191.858 9.26364 192.592 9.52223C193.557 9.88437 194.621 9.88437 195.586 9.52223C196.053 9.35494 196.481 9.09336 196.843 8.75375C197.208 8.41522 197.503 8.00831 197.712 7.5561C197.931 7.05274 198.04 6.50823 198.031 5.95923" fill="#8C9091" fill-opacity="0.8"/>
<path d="M52.8961 41.3595C52.9197 41.0205 52.9833 40.6855 53.0857 40.3615C53.1899 39.9722 53.3734 39.6086 53.6247 39.2936C53.9138 38.9422 54.2744 38.6564 54.6826 38.4552C55.203 38.2104 55.7746 38.094 56.3493 38.1159C56.7645 38.0768 57.1832 38.1269 57.5774 38.2629C57.9716 38.3989 58.3321 38.6176 58.6348 38.9044C59.1849 39.6014 59.5304 40.4376 59.6329 41.3196L52.8961 41.3595ZM49.2632 39.7826C48.8839 40.7904 48.6944 41.8597 48.7043 42.9364C48.6908 44.0419 48.8767 45.1407 49.2533 46.1801C49.6147 47.136 50.1761 48.0037 50.9 48.7251C51.5832 49.4457 52.4186 50.0049 53.3452 50.3619C54.3841 50.7551 55.4881 50.9481 56.5988 50.9307C58.1559 50.9779 59.6928 50.5685 61.0201 49.7531C62.3675 48.7841 63.329 47.3701 63.7348 45.7609H59.9622C59.7699 46.3344 59.3903 46.8266 58.8843 47.1582C58.1366 47.6132 57.2677 47.8294 56.3939 47.7776C55.5201 47.7259 54.6828 47.4088 53.9939 46.8687C53.2801 46.041 52.9215 44.9651 52.9959 43.8746H63.8745C63.9699 42.7501 63.8822 41.6176 63.615 40.5212C63.366 39.5168 62.9291 38.5687 62.3276 37.7267C61.7053 36.8863 60.8953 36.2028 59.9622 35.7306C58.9116 35.1969 57.7472 34.9263 56.5689 34.9422C55.4858 34.9357 54.4128 35.1496 53.4151 35.5709C52.4832 35.9596 51.6421 36.5371 50.9446 37.2672C50.2472 37.9972 49.7087 38.8639 49.363 39.8126L49.2632 39.7826ZM32.2467 43.2059C32.2367 44.2827 32.4262 45.352 32.8056 46.3597C33.1675 47.2783 33.7029 48.1186 34.3825 48.8349C35.0749 49.5251 35.9045 50.0623 36.8177 50.4118C37.8254 50.8047 38.9 50.9979 39.9815 50.9806C41.7793 51.0637 43.548 50.5047 44.9717 49.4037C46.3376 48.2306 47.1872 46.5672 47.337 44.7728H43.1852C43.101 45.6147 42.7515 46.408 42.1871 47.0384C41.8805 47.3312 41.5163 47.5569 41.1176 47.7013C40.719 47.8456 40.2947 47.9054 39.8717 47.8767C39.2918 47.893 38.7197 47.7404 38.2249 47.4376C37.7785 47.1515 37.4086 46.761 37.147 46.2998C36.8698 45.81 36.6775 45.2769 36.5782 44.7229C36.4603 44.1682 36.3968 43.6033 36.3885 43.0363C36.3968 42.456 36.4603 41.8779 36.5782 41.3096C36.6817 40.7524 36.8845 40.2183 37.177 39.7327C37.4383 39.2524 37.8072 38.8391 38.2549 38.5251C38.7543 38.215 39.334 38.0588 39.9216 38.076C40.2887 38.0373 40.6598 38.0715 41.0137 38.1765C41.3675 38.2816 41.6972 38.4555 41.9837 38.6882C42.2702 38.921 42.5079 39.208 42.6833 39.5328C42.8586 39.8576 42.9681 40.2138 43.0055 40.5811C43.0104 40.6208 43.0104 40.6611 43.0055 40.7008H47.1075C47.0829 39.8462 46.8611 39.0087 46.4594 38.2539C46.0578 37.4991 45.4871 36.8473 44.792 36.3494C44.1174 35.8898 43.3675 35.552 42.5764 35.3513C41.7254 35.1119 40.8455 34.991 39.9615 34.9921C38.8295 34.9804 37.7066 35.1942 36.658 35.6208C35.7265 36.0107 34.8918 36.6001 34.2128 37.3474C33.5291 38.1029 33.0122 38.9938 32.6958 39.9623C32.3449 41.0246 32.1696 42.1371 32.1768 43.2558L32.2467 43.2059ZM22.1465 42.637L16.6273 50.6213H21.3181L24.4719 45.8108L27.6357 50.6213H32.4762L26.8772 42.5173L31.8674 35.4112H27.2565L24.6017 39.4034L21.9169 35.4112H17.1363L22.1465 42.637ZM15.779 29.5428H0V50.6014H15.9686V46.709H4.6309V41.5691H14.8408V37.9662H4.6309V33.4551H15.779V29.5428ZM10.4096 8.87336L18.6434 0.599609H12.8647L4.6309 9.28255V0.599609H0V21.6183H4.6309V14.8317L7.28569 12.1469L13.5933 21.6183H19.4119L10.4096 8.87336ZM30.2306 14.0033C30.239 14.6164 30.1821 15.2286 30.061 15.8297C29.9511 16.3867 29.7451 16.9203 29.4521 17.4066C29.1784 17.887 28.7824 18.2864 28.3044 18.5643C27.7543 18.8529 27.1388 18.9938 26.5179 18.9735C25.9033 18.995 25.2939 18.8538 24.7514 18.5643C24.2846 18.2971 23.8932 17.9159 23.6136 17.4565C23.3207 16.9702 23.1147 16.4366 23.0048 15.8796C22.8888 15.2913 22.8319 14.6928 22.8351 14.0931C22.8317 13.4868 22.8886 12.8817 23.0048 12.2867C23.1137 11.7294 23.3198 11.1956 23.6136 10.7098C23.9167 10.2185 24.3461 9.81769 24.8569 9.54909C25.3678 9.28048 25.9414 9.15396 26.5179 9.18275C27.1383 9.15513 27.7548 9.29291 28.3044 9.58197C28.7694 9.85073 29.163 10.2272 29.4521 10.6798C29.746 11.1657 29.9521 11.6994 30.061 12.2567C30.1772 12.8518 30.234 13.4569 30.2306 14.0632V14.0033ZM33.8635 17.3667C34.2528 16.3096 34.4423 15.1894 34.4224 14.0632C34.4424 12.9336 34.2529 11.8101 33.8635 10.7497C33.526 9.79965 32.9848 8.9349 32.278 8.21599C31.5712 7.49708 30.7157 6.94139 29.7715 6.58785C27.6746 5.81571 25.3712 5.81571 23.2743 6.58785C22.3362 6.94791 21.4868 7.5061 20.784 8.22433C20.0813 8.94256 19.5418 9.80394 19.2023 10.7497C18.8224 11.8127 18.6332 12.9344 18.6434 14.0632C18.6234 15.1894 18.8129 16.3096 19.2023 17.3667C19.5472 18.3086 20.0842 19.1684 20.7792 19.8917C21.4886 20.58 22.3307 21.1166 23.2543 21.4686C24.2908 21.857 25.3912 22.0466 26.4979 22.0275C27.6112 22.0474 28.7183 21.8578 29.7615 21.4686C30.7012 21.1176 31.5531 20.5662 32.258 19.8526C32.9629 19.1391 33.504 18.2806 33.8435 17.3367L33.8635 17.3667ZM40.5803 15.7598C40.4607 15.2056 40.4005 14.6402 40.4006 14.0731C40.4006 13.4929 40.4608 12.9143 40.5803 12.3465C40.6901 11.791 40.8925 11.258 41.1791 10.7696C41.458 10.2982 41.836 9.89297 42.2869 9.58197C42.791 9.26456 43.3782 9.10472 43.9736 9.12287C44.7068 9.04676 45.4405 9.26131 46.0172 9.7204C46.5939 10.1795 46.9674 10.8465 47.0576 11.578C47.0526 11.6212 47.0526 11.6647 47.0576 11.7078H51.1595C51.1286 10.8108 50.8821 9.93441 50.4409 9.15281C50.0564 8.46392 49.533 7.86238 48.9039 7.38628C48.2253 6.89889 47.4647 6.5372 46.6583 6.31838C45.8074 6.07893 44.9275 5.95802 44.0435 5.95908C42.9042 5.93814 41.7729 6.15218 40.72 6.58785C39.7862 6.97871 38.9485 7.56784 38.2648 8.31446C37.5845 9.0761 37.0681 9.96957 36.7478 10.9393C36.388 12.01 36.2092 13.1332 36.2189 14.2628C36.2089 15.3395 36.3984 16.4088 36.7778 17.4166C37.1374 18.3357 37.6769 19.1738 38.3646 19.8817C39.056 20.5734 39.8859 21.1108 40.7999 21.4586C41.8051 21.8491 42.8753 22.0456 43.9537 22.0375C45.7496 22.1068 47.5138 21.5493 48.9439 20.4606C50.2988 19.2788 51.146 17.6202 51.3092 15.8297H47.2272C47.1451 16.6691 46.7952 17.4599 46.2292 18.0853C45.9217 18.3763 45.5571 18.6002 45.1585 18.7428C44.7599 18.8854 44.336 18.9436 43.9137 18.9136C43.3295 18.9404 42.7512 18.7871 42.257 18.4745C41.8116 18.1904 41.4445 17.7992 41.1891 17.3367C40.9113 16.8462 40.7158 16.3136 40.6102 15.7598H40.5803ZM63.3555 21.6283H67.5373V12.2467C67.5493 11.3785 67.4656 10.5117 67.2878 9.66181C67.1544 8.93895 66.8574 8.25618 66.4195 7.66573C65.9709 7.10161 65.3826 6.66464 64.7129 6.39822C63.8336 6.06628 62.8977 5.91029 61.9583 5.93912C61.1187 5.95639 60.2935 6.16097 59.543 6.53794C58.7019 6.97325 58.0077 7.64667 57.547 8.47414H57.4571V0.599609H53.2155V21.6183H57.4072V13.634C57.3139 12.4645 57.5897 11.2952 58.1957 10.2906C58.4968 9.93648 58.8793 9.6607 59.3104 9.48688C59.7415 9.31305 60.2083 9.24636 60.6708 9.29253C61.0701 9.24685 61.4744 9.30775 61.8426 9.46903C62.2107 9.63031 62.5296 9.88622 62.7667 10.2107C63.2211 11.0761 63.4283 12.0498 63.3655 13.0252L63.3555 21.6283ZM66.1301 50.6313H70.3219V29.5428H66.1301V50.6313ZM73.296 50.6313H77.4778V29.5428H73.2761L73.296 50.6313ZM83.7954 41.3695C83.8272 41.0308 83.8941 40.6964 83.995 40.3715C84.107 39.9813 84.2971 39.618 84.5539 39.3036C84.843 38.9522 85.2037 38.6664 85.6118 38.4652C86.1335 38.2243 86.7042 38.1081 87.2786 38.1259C87.6937 38.0874 88.1122 38.1378 88.5063 38.2738C88.9004 38.4097 89.261 38.6281 89.5641 38.9143C90.1142 39.6114 90.4597 40.4476 90.5621 41.3296L83.7954 41.3695ZM83.7954 44.0243H94.8138C94.8941 42.8845 94.793 41.7391 94.5143 40.631C94.2614 39.5914 93.807 38.6114 93.177 37.7466C92.5547 36.9062 91.7447 36.2227 90.8116 35.7506C89.7593 35.2216 88.596 34.9514 87.4183 34.9621C86.3289 34.9265 85.2442 35.1203 84.2345 35.531C83.3024 35.9211 82.4607 36.4991 81.7618 37.2288C81.063 37.9586 80.5219 38.8246 80.1725 39.7727C79.7988 40.782 79.6095 41.8502 79.6136 42.9265C79.6 44.0319 79.786 45.1307 80.1625 46.1701C80.5034 47.1199 81.0407 47.9871 81.7394 48.7151C82.4206 49.4358 83.2567 49.9921 84.1846 50.3419C85.2216 50.7431 86.3265 50.9396 87.4382 50.9208C88.9799 50.9661 90.5016 50.564 91.8196 49.763C93.155 48.8042 94.1148 47.4103 94.5343 45.8208H90.8416C90.6287 46.3789 90.2352 46.8497 89.7238 47.1582C88.977 47.6146 88.1087 47.8325 87.2349 47.7825C86.3611 47.7326 85.5233 47.4173 84.8334 46.8787C84.1307 46.0447 83.7736 44.9734 83.8353 43.8846L83.7954 44.0243ZM107.02 50.5016H111.212V41.2398C111.22 40.3745 111.133 39.5111 110.952 38.6648C110.825 37.94 110.527 37.2559 110.084 36.6688C109.642 36.0997 109.056 35.6587 108.387 35.3913C107.506 35.0649 106.572 34.9091 105.632 34.9322C104.733 34.9429 103.848 35.1507 103.038 35.541C102.164 35.9793 101.444 36.6717 100.972 37.5271H100.892V35.3713H96.8997V50.6213H101.091V42.637C100.998 41.4644 101.274 40.2918 101.88 39.2836C102.184 38.9328 102.567 38.6593 102.997 38.4858C103.427 38.3122 103.893 38.2436 104.355 38.2856C104.756 38.2433 105.162 38.3067 105.531 38.4695C105.901 38.6323 106.221 38.8889 106.461 39.2138C106.901 40.0873 107.1 41.0621 107.04 42.0382L107.02 50.5016ZM117.878 44.6331C117.759 44.0789 117.699 43.5134 117.699 42.9464C117.699 42.3662 117.759 41.7876 117.878 41.2198C117.987 40.664 118.19 40.1308 118.477 39.6429C118.765 39.1975 119.142 38.8168 119.585 38.5251C120.089 38.215 120.671 38.0557 121.262 38.066C121.997 37.9871 122.733 38.2004 123.312 38.6597C123.891 39.1191 124.266 39.7877 124.356 40.5212C124.361 40.5643 124.361 40.6079 124.356 40.6509H128.458C128.433 39.7963 128.211 38.9588 127.81 38.204C127.408 37.4492 126.837 36.7974 126.142 36.2995C125.445 35.8347 124.671 35.4968 123.857 35.3014C123.009 35.0627 122.132 34.9418 121.252 34.9422C120.117 34.9295 118.99 35.1432 117.938 35.5709C117.007 35.9608 116.172 36.5502 115.493 37.2975C114.813 38.0556 114.297 38.9457 113.976 39.9124C113.63 40.9759 113.455 42.0875 113.457 43.2059C113.446 44.2837 113.639 45.3539 114.026 46.3597C114.376 47.2846 114.912 48.1273 115.603 48.8349C116.292 49.5239 117.119 50.0611 118.028 50.4118C119.033 50.8023 120.104 50.9987 121.182 50.9906C122.98 51.0613 124.745 50.4998 126.172 49.4037C127.533 48.2266 128.381 46.5654 128.538 44.7728H124.495C124.411 45.6147 124.062 46.408 123.497 47.0384C123.191 47.3312 122.827 47.5569 122.428 47.7013C122.029 47.8456 121.605 47.9054 121.182 47.8767C120.602 47.893 120.03 47.7404 119.535 47.4376C119.088 47.1489 118.716 46.7591 118.447 46.2998C118.174 45.8081 117.982 45.2757 117.878 44.7229V44.6331ZM134.246 41.3296C134.277 40.9908 134.344 40.6562 134.446 40.3316C134.553 39.9394 134.744 39.5751 135.005 39.2637C135.291 38.9066 135.652 38.617 136.063 38.4153C136.584 38.1744 137.155 38.0582 137.729 38.076C138.144 38.0413 138.562 38.0935 138.955 38.2293C139.349 38.365 139.71 38.5814 140.015 38.8644C140.581 39.5606 140.944 40.4 141.063 41.2897L134.246 41.3296ZM134.246 43.9844H145.225C145.306 42.8446 145.205 41.6991 144.925 40.5911C144.685 39.5639 144.251 38.5919 143.648 37.7267C143.019 36.8881 142.207 36.2051 141.273 35.7306C140.226 35.1958 139.064 34.9251 137.889 34.9422C136.808 34.9179 135.734 35.1184 134.735 35.531C133.803 35.9196 132.962 36.4972 132.265 37.2273C131.567 37.9573 131.029 38.824 130.683 39.7727C130.301 40.7798 130.108 41.8491 130.114 42.9265C130.096 44.0322 130.282 45.1319 130.663 46.1701C131.012 47.1162 131.548 47.9819 132.24 48.7151C132.923 49.4337 133.759 49.9896 134.685 50.3419C135.723 50.7423 136.827 50.9389 137.939 50.9208C139.496 50.9679 141.033 50.5586 142.36 49.7431C143.701 48.7896 144.663 47.3936 145.075 45.8008H141.223C141.013 46.3609 140.619 46.8327 140.105 47.1382C139.357 47.5969 138.487 47.816 137.611 47.766C136.735 47.7161 135.895 47.3995 135.204 46.8587C134.497 46.0273 134.139 44.9542 134.206 43.8646L134.246 43.9844ZM152.351 33.3153H162.561V29.5428H147.71V50.6014H152.341V41.9484H161.153V38.3255H152.341L152.351 33.3153ZM174.587 42.8666C174.598 43.4638 174.537 44.0601 174.407 44.6431C174.309 45.2048 174.105 45.743 173.809 46.23C173.533 46.7118 173.138 47.1141 172.661 47.3977C172.111 47.6862 171.495 47.8272 170.874 47.8069C170.259 47.8332 169.649 47.6918 169.108 47.3977C168.641 47.1304 168.25 46.7493 167.97 46.2899C167.673 45.8021 167.467 45.2644 167.361 44.703C167.241 44.1184 167.181 43.5232 167.182 42.9265C167.181 42.3231 167.241 41.7213 167.361 41.13C167.462 40.5673 167.669 40.0288 167.97 39.5431C168.274 39.0522 168.704 38.6512 169.214 38.381C169.724 38.1109 170.297 37.9815 170.874 38.0061C171.499 37.9852 172.117 38.1372 172.661 38.4453C173.126 38.714 173.519 39.0905 173.809 39.5431C174.11 40.028 174.313 40.5671 174.407 41.13C174.537 41.7198 174.598 42.3227 174.587 42.9265V42.8666ZM178.22 46.23C178.972 44.0885 178.972 41.7545 178.22 39.613C177.868 38.679 177.319 37.8314 176.611 37.1273C175.904 36.4232 175.054 35.8788 174.118 35.531C172.034 34.7845 169.755 34.7845 167.671 35.531C166.732 35.8921 165.882 36.4519 165.179 37.1719C164.476 37.8919 163.937 38.7552 163.599 39.7028C162.84 41.8432 162.84 44.1794 163.599 46.3198C163.937 47.265 164.475 48.1262 165.176 48.8448C165.876 49.544 166.721 50.0821 167.651 50.4217C168.687 50.811 169.788 51.0007 170.894 50.9806C172.008 51.0005 173.115 50.8109 174.158 50.4217C175.089 50.0785 175.936 49.541 176.643 48.8448C177.343 48.1236 177.884 47.2633 178.23 46.3198L178.22 46.23ZM190.206 38.8844C190.444 38.903 190.681 38.9363 190.915 38.9842V35.1018C190.617 35.0125 190.308 34.9621 189.997 34.9521C189.475 34.952 188.957 35.0328 188.46 35.1917C187.972 35.3492 187.508 35.5743 187.083 35.8603C186.649 36.1337 186.259 36.4701 185.925 36.8584C185.602 37.2584 185.336 37.7019 185.136 38.1758H185.086V35.3713H181.094V50.6213H185.286V43.7548C185.263 43.1228 185.31 42.4902 185.426 41.8685C185.546 41.2998 185.784 40.7626 186.124 40.2916C186.46 39.8408 186.902 39.4807 187.412 39.2437C188.021 38.9737 188.682 38.8441 189.348 38.8644C189.611 38.8493 189.874 38.8493 190.137 38.8644L190.206 38.8844ZM192.512 50.5914H208.48V46.729H197.123V41.5691H207.333V37.9662H197.173V33.4551H208.291V29.5428H192.512V50.5914ZM224.978 50.5914L219.329 42.5173L224.319 35.4112H219.688L217.024 39.4034L214.339 35.4112H209.608L214.598 42.637L209.129 50.6213H213.82L216.974 45.8108L220.128 50.6213L224.978 50.5914ZM237.493 43.0063C237.494 43.6129 237.433 44.218 237.314 44.8128C237.215 45.3713 237.012 45.9062 236.715 46.3897C236.416 46.8496 236.012 47.2325 235.537 47.5075C234.781 47.9475 233.884 48.081 233.032 47.8805C232.18 47.6801 231.437 47.1608 230.956 46.4296C230.658 45.9451 230.448 45.411 230.338 44.8527C230.209 44.2591 230.146 43.6535 230.148 43.0462C230.148 42.433 230.208 41.8213 230.328 41.2198C230.425 40.6608 230.628 40.1256 230.926 39.6429C231.22 39.1851 231.616 38.8022 232.084 38.5251C232.609 38.2264 233.207 38.0779 233.811 38.096C234.416 38.0698 235.015 38.2188 235.537 38.5251C236.015 38.804 236.422 39.1901 236.725 39.6529C237.03 40.1364 237.246 40.6704 237.364 41.2298C237.491 41.8234 237.555 42.4291 237.553 43.0363L237.493 43.0063ZM241.326 46.1002C241.609 45.1276 241.751 44.1191 241.745 43.1061C241.746 42.0376 241.605 40.9737 241.326 39.9423C241.076 39.0001 240.646 38.1155 240.058 37.3374C239.447 36.5329 238.65 35.8872 237.737 35.4547C236.823 35.0222 235.819 34.8156 234.809 34.8523C233.913 34.8493 233.027 35.0435 232.214 35.4212C231.389 35.8142 230.695 36.4382 230.218 37.2177H230.168V35.3713H226.176V55.9708H230.357V48.7351H230.417C230.917 49.4709 231.607 50.0574 232.413 50.4317C233.23 50.8188 234.125 51.0135 235.028 51.0006C235.988 51.0284 236.94 50.8285 237.808 50.4174C238.675 50.0063 239.433 49.3955 240.019 48.6353C240.581 47.8815 241.003 47.0331 241.266 46.1302L241.326 46.1002ZM247.194 41.3895C247.223 41.0511 247.286 40.7166 247.384 40.3914C247.513 39.9812 247.728 39.603 248.013 39.2813C248.299 38.9597 248.649 38.702 249.041 38.5251C249.562 38.2831 250.133 38.1669 250.708 38.1858C251.123 38.1466 251.541 38.1968 251.936 38.3327C252.33 38.4687 252.69 38.6875 252.993 38.9742C253.562 39.6698 253.928 40.5091 254.051 41.3995L247.194 41.3895ZM247.194 44.0443H258.173C258.253 42.9044 258.152 41.7591 257.873 40.6509C257.616 39.6128 257.162 38.6337 256.536 37.7666C255.91 36.9257 255.097 36.2423 254.161 35.7705C253.112 35.2417 251.952 34.9714 250.777 34.9821C249.691 34.9742 248.614 35.1882 247.614 35.6108C246.693 36.0068 245.864 36.5876 245.177 37.3172C244.49 38.0469 243.961 38.9098 243.621 39.8525C243.244 40.8612 243.052 41.9294 243.053 43.0063C243.044 44.1113 243.23 45.2092 243.601 46.2499C243.95 47.1961 244.486 48.0618 245.178 48.7949C245.865 49.5137 246.704 50.0696 247.634 50.4217C248.667 50.8221 249.769 51.0187 250.877 51.0006C252.434 51.0478 253.971 50.6384 255.299 49.8229C256.644 48.8744 257.607 47.4763 258.013 45.8807H254.271C254.052 46.4379 253.66 46.9102 253.153 47.228C252.403 47.6839 251.533 47.9005 250.657 47.8488C249.782 47.7971 248.943 47.4795 248.252 46.9386C247.539 46.1103 247.181 45.0348 247.254 43.9445L247.194 44.0443ZM275.898 50.5615C276.719 50.5719 277.54 50.5219 278.353 50.4118V47.1981C277.927 47.2878 277.491 47.328 277.056 47.3178C275.639 47.3178 275.289 46.9685 275.289 45.5513V38.0061H278.353V35.1917H275.289V30.6206H271.097V35.1917H268.872C266.546 35.1917 264.69 36.0699 263.882 37.9263H263.822V35.1917H259.83V50.4417H264.021V43.0163C264.021 40.1619 265.299 38.0261 269.541 38.0261H271.117V47.0084C271.117 50.0026 273.353 50.6313 275.918 50.6313L275.898 50.5615ZM292.885 48.266C293.307 47.4928 293.517 46.6216 293.493 45.7409C293.515 45.1219 293.37 44.5085 293.074 43.9644C292.808 43.4845 292.436 43.0715 291.986 42.7568C291.506 42.406 290.969 42.1394 290.4 41.9683C289.816 41.7685 289.224 41.5986 288.623 41.4593L286.876 41.0701C286.364 40.9698 285.857 40.8398 285.359 40.6809C284.967 40.5585 284.601 40.362 284.282 40.102C284.148 39.99 284.042 39.8492 283.971 39.6901C283.9 39.531 283.866 39.3579 283.872 39.1838C283.846 38.8998 283.932 38.6166 284.112 38.3954C284.265 38.212 284.46 38.0682 284.681 37.9762C284.93 37.8656 285.197 37.7981 285.469 37.7766C285.732 37.7619 285.995 37.7619 286.258 37.7766C286.948 37.7513 287.635 37.8988 288.254 38.2057C288.539 38.3688 288.774 38.6064 288.934 38.893C289.094 39.1796 289.173 39.5045 289.162 39.8325H293.154C293.105 38.997 292.855 38.1857 292.426 37.4672C292.039 36.8595 291.516 36.3503 290.899 35.9801C290.26 35.5939 289.557 35.3267 288.823 35.1917C288.044 35.032 287.252 34.9517 286.457 34.9521C285.647 34.9504 284.839 35.0239 284.042 35.1717C283.294 35.3127 282.575 35.5793 281.916 35.9602C281.291 36.3166 280.768 36.8289 280.399 37.4472C279.991 38.185 279.791 39.0198 279.82 39.8625C279.755 40.457 279.855 41.058 280.11 41.5991C280.381 42.0647 280.757 42.461 281.208 42.7568C281.693 43.0792 282.225 43.325 282.785 43.4854C283.368 43.6787 283.961 43.8419 284.561 43.9744C285.751 44.2223 286.922 44.5558 288.064 44.9724C288.893 45.2918 289.312 45.7609 289.312 46.3897C289.329 46.7206 289.234 47.0478 289.042 47.3178C288.869 47.5609 288.644 47.7621 288.384 47.9067C288.106 48.0543 287.811 48.165 287.505 48.236C287.196 48.2993 286.882 48.3328 286.567 48.3358C286.167 48.3359 285.767 48.2856 285.379 48.1861C285.021 48.0973 284.682 47.9415 284.381 47.727C284.084 47.5202 283.836 47.2512 283.653 46.9386C283.461 46.5839 283.368 46.184 283.383 45.7809H279.391C279.387 46.6178 279.598 47.4417 280.003 48.1739C280.409 48.9061 280.995 49.522 281.707 49.9626C282.406 50.3829 283.172 50.68 283.972 50.8409C284.825 51.0216 285.695 51.1086 286.567 51.1004C287.421 51.1058 288.274 51.0255 289.112 50.8609C289.903 50.7105 290.658 50.4125 291.338 49.9826C291.99 49.5752 292.532 49.0129 292.915 48.3458L292.885 48.266ZM300.37 46.1801H295.729V50.7212H300.37V46.1801Z" fill="white" fill-opacity="0.8"/>
</svg>
