<svg width="28" height="28" viewBox="0 0 28 28" fill="none" xmlns="http://www.w3.org/2000/svg">
<path fill-rule="evenodd" clip-rule="evenodd" d="M3.4987 3.5C2.85437 3.5 2.33203 4.02233 2.33203 4.66667C2.33203 5.311 2.85437 5.83333 3.4987 5.83333H3.50092H3.50263H3.50423H3.50749H3.51062H3.51236H3.51422H3.55908H3.72656H4.30078H4.90076L7.61104 17.7586C7.75078 18.3734 8.3524 18.7635 8.96691 18.6461C9.03794 18.6596 9.11124 18.6667 9.1862 18.6667H20.9987C21.485 18.6667 21.9203 18.365 22.0911 17.9096L25.5911 8.57631C25.7254 8.21803 25.6756 7.81664 25.4576 7.50214C25.2397 7.18764 24.8813 7 24.4987 7H7.55875L6.96969 4.40811C6.84897 3.87694 6.37675 3.5 5.83203 3.5H4.30078H3.72656H3.55908H3.55196H3.54526H3.54365H3.54207H3.53898H3.53314H3.52279H3.52162H3.51936H3.51722H3.51422H3.50749H3.50482H3.50263H3.4987ZM11.6654 19.8333C10.3767 19.8333 9.33203 20.878 9.33203 22.1667C9.33203 23.4553 10.3767 24.5 11.6654 24.5C12.954 24.5 13.9987 23.4553 13.9987 22.1667C13.9987 20.878 12.954 19.8333 11.6654 19.8333ZM16.332 22.1667C16.332 20.878 17.3767 19.8333 18.6654 19.8333C19.954 19.8333 20.9987 20.878 20.9987 22.1667C20.9987 23.4553 19.954 24.5 18.6654 24.5C17.3767 24.5 16.332 23.4553 16.332 22.1667Z" fill="white"/>
</svg>
