<svg width="161" height="57" viewBox="0 0 161 57" fill="none" xmlns="http://www.w3.org/2000/svg">
<path d="M132.169 47.46C132.205 47.1725 132.181 46.8805 132.098 46.6028C132.015 46.3252 131.875 46.0679 131.687 45.8476C131.498 45.6273 131.266 45.4488 131.005 45.3235C130.743 45.1982 130.459 45.1289 130.169 45.12C129.877 45.121 129.589 45.186 129.324 45.3103C129.06 45.4347 128.826 45.6155 128.639 45.84V45.26H127.869V52.38H128.639V49.73C128.961 49.9614 129.353 50.0745 129.749 50.05C130.079 50.0483 130.405 49.9785 130.707 49.8449C131.009 49.7114 131.28 49.517 131.504 49.2739C131.727 49.0308 131.898 48.7443 132.006 48.4322C132.113 48.1201 132.155 47.7891 132.129 47.46H132.169ZM131.299 47.46C131.329 47.6915 131.309 47.9267 131.241 48.1498C131.173 48.373 131.057 48.5791 130.903 48.7542C130.749 48.9293 130.559 49.0695 130.346 49.1653C130.133 49.2612 129.903 49.3105 129.669 49.31C129.49 49.3329 129.308 49.3069 129.143 49.2347C128.977 49.1625 128.834 49.0468 128.729 48.9C128.649 48.75 128.639 48.7 128.639 48.3V46.69C128.78 46.4906 128.952 46.315 129.149 46.17C129.414 45.9836 129.726 45.8761 130.049 45.86C130.769 45.86 131.299 46.54 131.299 47.47" fill="white" fill-opacity="0.8"/>
<path d="M136.75 47.5201V47.0701C136.774 46.8212 136.745 46.57 136.665 46.3332C136.585 46.0963 136.456 45.879 136.286 45.6958C136.115 45.5125 135.909 45.3673 135.678 45.2698C135.448 45.1723 135.2 45.1247 134.95 45.1301C134.638 45.1279 134.329 45.1921 134.043 45.3186C133.758 45.445 133.503 45.6308 133.294 45.8634C133.086 46.0961 132.93 46.3704 132.836 46.6681C132.742 46.9658 132.713 47.2801 132.75 47.5901C132.713 47.898 132.742 48.2102 132.834 48.5063C132.926 48.8024 133.079 49.0758 133.284 49.3088C133.489 49.5418 133.74 49.7291 134.022 49.8585C134.304 49.9879 134.61 50.0566 134.92 50.0601C135.53 50.0572 136.123 49.8572 136.61 49.4901L136.3 48.8801C135.962 49.171 135.535 49.337 135.09 49.35C134.09 49.35 133.56 48.6601 133.56 47.5201H136.75ZM135.91 46.9501H133.62C133.661 46.6408 133.814 46.3574 134.05 46.153C134.286 45.9486 134.588 45.8373 134.9 45.8401C135.54 45.8401 135.9 46.2301 135.9 46.9501" fill="white" fill-opacity="0.8"/>
<path d="M140.189 45.45C140.038 45.2766 139.828 45.166 139.599 45.14C139.249 45.14 138.959 45.36 138.379 46.14V45.3H137.609V49.96H138.379V47.14C138.819 46.34 139.189 45.92 139.479 45.92C139.569 45.92 139.659 45.92 139.809 46.1L140.189 45.45Z" fill="white" fill-opacity="0.8"/>
<path d="M141.869 43.63C141.846 43.5145 141.784 43.4105 141.693 43.3359C141.601 43.2612 141.487 43.2205 141.369 43.2205C141.252 43.2205 141.137 43.2612 141.046 43.3359C140.955 43.4105 140.893 43.5145 140.869 43.63C140.854 43.704 140.856 43.7804 140.874 43.8536C140.893 43.9269 140.927 43.9952 140.975 44.0536C141.023 44.112 141.083 44.1591 141.151 44.1914C141.219 44.2237 141.294 44.2405 141.369 44.2405C141.445 44.2405 141.519 44.2237 141.588 44.1914C141.656 44.1591 141.716 44.112 141.764 44.0536C141.812 43.9952 141.846 43.9269 141.864 43.8536C141.883 43.7804 141.884 43.704 141.869 43.63ZM141.749 45.26H140.999V49.92H141.779L141.749 45.26Z" fill="white" fill-opacity="0.8"/>
<path d="M146.77 47.5201V47.0701C146.794 46.8212 146.765 46.57 146.685 46.3332C146.605 46.0963 146.475 45.879 146.305 45.6958C146.135 45.5125 145.928 45.3673 145.698 45.2698C145.468 45.1723 145.219 45.1247 144.97 45.1301C144.657 45.128 144.348 45.1923 144.062 45.3187C143.776 45.4451 143.52 45.6306 143.311 45.8631C143.102 46.0955 142.945 46.3697 142.85 46.6674C142.755 46.9651 142.724 47.2795 142.759 47.5901C142.723 47.8988 142.752 48.2118 142.845 48.5087C142.937 48.8055 143.091 49.0794 143.297 49.3125C143.503 49.5456 143.756 49.7327 144.039 49.8615C144.322 49.9903 144.629 50.058 144.94 50.0601C145.546 50.0557 146.135 49.8558 146.619 49.4901L146.309 48.8801C145.972 49.171 145.545 49.337 145.1 49.35C144.15 49.35 143.58 48.6601 143.58 47.5201H146.77ZM145.919 46.9501H143.639C143.679 46.6417 143.83 46.3583 144.064 46.1538C144.298 45.9492 144.599 45.8376 144.91 45.8401C145.55 45.8401 145.91 46.2301 145.91 46.9501" fill="white" fill-opacity="0.8"/>
<path d="M151.609 49.92V46.43C151.609 45.56 151.199 45.13 150.379 45.13C149.92 45.1388 149.479 45.3047 149.129 45.6C148.899 45.793 148.688 46.0073 148.499 46.24V45.24H147.729V49.9H148.499V47.07C149.309 46.17 149.809 45.82 150.289 45.82C150.382 45.8132 150.476 45.833 150.56 45.8773C150.643 45.9215 150.712 45.9883 150.759 46.07C150.819 46.2468 150.842 46.4338 150.829 46.62V49.92H151.609Z" fill="white" fill-opacity="0.8"/>
<path d="M156.58 49.56L156.18 48.95C155.87 49.2187 155.47 49.3615 155.06 49.35C154.833 49.36 154.608 49.3209 154.398 49.2354C154.188 49.15 153.999 49.0201 153.845 48.8548C153.69 48.6896 153.572 48.4927 153.501 48.2778C153.429 48.0629 153.405 47.8351 153.43 47.61C153.405 47.3877 153.426 47.1627 153.493 46.9494C153.561 46.7361 153.672 46.5392 153.82 46.3715C153.968 46.2037 154.149 46.0689 154.352 45.9756C154.556 45.8824 154.776 45.8327 155 45.83C155.373 45.8327 155.732 45.9795 156 46.24L156.45 45.61C156.222 45.426 155.955 45.2961 155.67 45.23C155.449 45.1667 155.22 45.1331 154.99 45.13C154.66 45.1195 154.331 45.1782 154.025 45.3022C153.719 45.4263 153.442 45.6129 153.212 45.8502C152.983 46.0875 152.805 46.3701 152.691 46.6801C152.577 46.99 152.529 47.3204 152.55 47.65C152.53 47.975 152.581 48.3004 152.697 48.6044C152.814 48.9083 152.995 49.1837 153.227 49.412C153.459 49.6404 153.737 49.8163 154.043 49.9281C154.349 50.0399 154.675 50.0848 155 50.06C155.453 50.0596 155.899 49.9498 156.3 49.74C156.408 49.6898 156.512 49.6296 156.61 49.56" fill="white" fill-opacity="0.8"/>
<path d="M160.849 47.5201V47.0701C160.873 46.8212 160.845 46.57 160.765 46.3332C160.685 46.0963 160.555 45.879 160.385 45.6958C160.215 45.5125 160.008 45.3673 159.778 45.2698C159.548 45.1723 159.299 45.1247 159.049 45.1301C158.737 45.1279 158.428 45.1921 158.143 45.3186C157.857 45.445 157.602 45.6308 157.394 45.8634C157.186 46.0961 157.03 46.3704 156.936 46.6681C156.842 46.9658 156.813 47.2801 156.849 47.5901C156.813 47.8963 156.841 48.2069 156.932 48.5016C157.023 48.7964 157.175 49.0688 157.377 49.3015C157.58 49.5341 157.829 49.7218 158.108 49.8525C158.387 49.9831 158.691 50.0538 158.999 50.0601C159.609 50.0572 160.202 49.8572 160.689 49.4901L160.379 48.8801C160.037 49.169 159.607 49.3345 159.159 49.35C158.219 49.35 157.639 48.6601 157.639 47.5201H160.849ZM159.999 47.0001H157.709C157.74 46.68 157.889 46.3831 158.128 46.1682C158.367 45.9533 158.678 45.8361 158.999 45.8401C159.639 45.8401 159.999 46.2301 159.999 46.9501" fill="white" fill-opacity="0.8"/>
<path d="M152.85 32.44L156.53 38.78H153L149.66 32.94H148.66V38.78H145.45V23.78H150.52C152.66 23.78 153.7 24.04 154.63 24.92C155.065 25.3514 155.402 25.8709 155.62 26.4436C155.837 27.0162 155.929 27.6288 155.89 28.24C155.93 29.2626 155.635 30.2703 155.05 31.11C154.524 31.8001 153.769 32.279 152.92 32.46L152.85 32.44ZM150.26 30.17C151.95 30.17 152.59 29.6 152.59 28.3C152.59 27 152.01 26.57 150.26 26.57H148.66V30.17H150.26ZM90.5 5.57004V20.73H87.25L80.93 11.19C80.88 11.11 80.68 10.74 80.64 10.65V20.59H77.55V5.59004H81.09L87.29 15.3C87.39 15.5 87.44 15.62 87.44 15.62V5.62004L90.5 5.57004ZM68.42 14.2H71.22L69.81 9.83004L68.42 14.2ZM71.2 5.57004L76.64 20.57H73.26L72.11 17H67.53L66.34 20.6H63L68.44 5.60004L71.2 5.57004ZM131.55 5.57004H134.93L129.36 20.57H127.11L121.54 5.57004H125.05L128.38 15L131.55 5.57004ZM139.27 20.57H136.05V5.57004H139.27V20.57ZM105 5.57004V20.73H101.75L95.43 11.19C95.43 11.11 95.19 10.74 95.14 10.65V20.59H92V5.59004H95.54L101.73 15.3C101.83 15.5 101.88 15.62 101.88 15.62V5.62004L105 5.57004ZM114.23 18C114.859 17.9919 115.48 17.8557 116.055 17.5997C116.629 17.3436 117.146 16.9732 117.573 16.5109C117.999 16.0486 118.327 15.5041 118.537 14.9108C118.746 14.3175 118.832 13.6878 118.79 13.06C118.831 12.4345 118.744 11.8071 118.533 11.2167C118.322 10.6263 117.992 10.0855 117.564 9.62777C117.135 9.17006 116.618 8.80517 116.042 8.55572C115.467 8.30626 114.847 8.17755 114.22 8.17755C113.593 8.17755 112.973 8.30626 112.398 8.55572C111.822 8.80517 111.305 9.17006 110.876 9.62777C110.448 10.0855 110.118 10.6263 109.907 11.2167C109.696 11.8071 109.609 12.4345 109.65 13.06C109.608 13.6894 109.695 14.3208 109.905 14.9155C110.116 15.5101 110.445 16.0555 110.874 16.5181C111.303 16.9806 111.822 17.3507 112.399 17.6056C112.976 17.8604 113.599 17.9946 114.23 18ZM114.23 5.29004C118.94 5.29004 122.23 8.43004 122.23 13.06C122.032 15.0335 121.108 16.8631 119.637 18.1937C118.166 19.5243 116.253 20.261 114.27 20.261C112.287 20.261 110.374 19.5243 108.903 18.1937C107.432 16.8631 106.508 15.0335 106.31 13.06C106.31 8.43004 109.55 5.29004 114.31 5.29004H114.23ZM160.75 38.76H157.54V23.76H160.75V38.76ZM67.9 30.15C69.59 30.15 70.23 29.58 70.23 28.28C70.23 26.98 69.65 26.55 67.9 26.55H66.3V30.15H67.9ZM70.56 32.44L74.24 38.78H70.69L67.35 32.94H66.35V38.78H63.08V23.78H68.16C70.3 23.78 71.34 24.04 72.27 24.92C72.7049 25.3514 73.0423 25.8709 73.2596 26.4436C73.477 27.0162 73.5692 27.6288 73.53 28.24C73.5699 29.2626 73.275 30.2703 72.69 31.11C72.1623 31.7982 71.4075 32.2766 70.56 32.46V32.44ZM84.84 36V38.8H75.23V23.8H84.55V26.59H78.45V29.77H83.45V32.56H78.45V36H84.84ZM95.37 23.76H98.75L93.17 38.76H90.93L85.36 23.76H88.87L92.2 33.17L95.37 23.76ZM109.25 36V38.8H99.64V23.8H109V26.59H102.9V29.77H107.9V32.56H102.9V36H109.25ZM115.19 30.17C116.88 30.17 117.51 29.6 117.51 28.3C117.51 27 116.94 26.57 115.19 26.57H113.59V30.17H115.19ZM117.85 32.46L121.53 38.8H118L114.66 32.96H113.66V38.8H110.44V23.8H115.52C117.66 23.8 118.7 24.06 119.62 24.94C120.058 25.3693 120.399 25.8882 120.618 26.4612C120.837 27.0343 120.93 27.6478 120.89 28.26C120.93 29.2826 120.635 30.2903 120.05 31.13C119.522 31.8182 118.768 32.2966 117.92 32.48L117.85 32.46ZM127.31 29.77C128.81 29.77 129.51 29.15 129.51 28.08C129.51 27.01 128.8 26.44 127.51 26.44H125.91V29.77H127.31ZM129 35.87C129.276 35.7298 129.507 35.5127 129.663 35.2448C129.819 34.977 129.894 34.6697 129.88 34.36C129.88 33.2 129.08 32.52 127.42 32.52H125.82V36.12H127.42C127.96 36.1812 128.506 36.0948 129 35.87ZM130.83 30.87C131.614 31.1235 132.289 31.6331 132.748 32.3169C133.207 33.0007 133.422 33.8189 133.36 34.64C133.36 37.31 131.64 38.75 128.63 38.75H122.47V23.75H128C129.92 23.75 130.93 23.99 131.79 24.75C132.507 25.4081 132.941 26.3177 133.003 27.2887C133.064 28.2597 132.748 29.2168 132.12 29.96C131.787 30.3688 131.353 30.6827 130.86 30.87H130.83ZM144.19 36V38.8H134.58V23.8H143.9V26.59H137.8V29.77H142.8V32.56H137.8V36H144.19Z" fill="white" fill-opacity="0.8"/>
<path d="M0.499174 45.66C-2.30083 23.84 6.58917 8.72 27.1192 0.0699982C27.194 0.0279475 27.2784 0.00585938 27.3642 0.00585938C27.45 0.00585937 27.5344 0.0279475 27.6092 0.0699982C48.0092 8.51 56.8825 23.7133 54.2292 45.68C54.2233 45.8709 54.1776 46.0585 54.0949 46.2308C54.0122 46.403 53.8945 46.556 53.7492 46.68C36.3092 60 18.7992 60.06 0.999174 46.65C0.849569 46.5291 0.728198 46.3769 0.643558 46.2042C0.558918 46.0315 0.513053 45.8423 0.509174 45.65" fill="#8E8E8E" fill-opacity="0.8"/>
<path d="M4.83852 43C2.54852 25.77 9.23852 13.8899 24.8385 6.74995C25.0685 6.64995 25.1985 6.62995 25.1985 6.89995V51.68C25.201 51.7056 25.1972 51.7315 25.1875 51.7554C25.1778 51.7792 25.1625 51.8004 25.1429 51.8171C25.1232 51.8338 25.0999 51.8455 25.0747 51.8512C25.0496 51.857 25.0234 51.8565 24.9985 51.8499C23.0746 51.744 21.162 51.4865 19.2785 51.08C19.0685 51.08 19.0385 50.94 19.0385 50.7V42.13C19.0385 41.94 19.0385 41.8099 18.6785 41.6899C15.6835 40.9388 12.9104 39.4854 10.5885 37.4499C10.4585 37.32 10.2985 37.4499 10.2985 37.5899C10.1959 40.7644 10.3901 43.9416 10.8785 47.08C10.8785 47.21 10.8785 47.4299 10.5685 47.2599C8.71376 46.1817 6.91479 45.0102 5.17852 43.75C5.06864 43.6589 4.98093 43.5441 4.92202 43.4142C4.86311 43.2842 4.83456 43.1426 4.83852 43Z" fill="white" fill-opacity="0.8"/>
<path d="M19.1693 18.2901C19.1693 18.1601 19.1193 17.9501 18.8093 18.1201C14.8893 20.3101 12.4993 24.2101 11.2793 29.8401C11.2793 30.0801 11.2793 30.1501 11.3493 30.2201C13.5238 32.1976 16.1089 33.6695 18.9193 34.5301C19.1593 34.6101 19.1693 34.4101 19.1693 34.3001V18.2901Z" fill="#8E8E8E" fill-opacity="0.8"/>
<path d="M29.9285 6.77998C41.8485 12.1666 48.5152 20.6366 49.9285 32.19C49.9595 32.3124 49.9574 32.4408 49.9222 32.5621C49.8871 32.6834 49.8202 32.7931 49.7285 32.88C48.296 34.6271 46.6108 36.1505 44.7285 37.4C44.4585 37.57 44.6285 37.75 44.6285 37.75L48.8585 43.92C49.0185 44.16 48.8585 44.23 48.8585 44.27C47.3677 45.3842 45.7968 46.3869 44.1585 47.27C43.9785 47.35 43.9085 47.38 43.7485 47.13C42.1885 44.86 39.8385 41.37 39.2485 40.5C39.1585 40.37 39.0385 40.27 38.7385 40.41C37.7982 40.9238 36.8184 41.3619 35.8085 41.72C35.7308 41.7339 35.6603 41.7745 35.6092 41.8347C35.5581 41.8949 35.5296 41.971 35.5285 42.05V50.69C35.5285 50.86 35.5285 51.07 35.2585 51.12C33.4367 51.5299 31.5834 51.7841 29.7185 51.88C29.6923 51.8816 29.666 51.8775 29.6415 51.8678C29.617 51.8582 29.595 51.8434 29.5768 51.8243C29.5587 51.8052 29.545 51.7824 29.5367 51.7575C29.5283 51.7326 29.5255 51.7061 29.5285 51.68V6.93998C29.5285 6.60998 29.7885 6.70998 29.9385 6.77998" fill="white" fill-opacity="0.8"/>
<path d="M35.5195 18.2901C35.5195 18.1601 35.5195 17.9501 35.8795 18.1201C39.7995 20.3101 42.1895 24.2101 43.4095 29.8401C43.4595 30.0801 43.4095 30.1501 43.3395 30.2201C41.1651 32.1976 38.5799 33.6695 35.7695 34.5301C35.5195 34.6101 35.5195 34.4101 35.5195 34.3001V18.2901Z" fill="#8E8E8E" fill-opacity="0.8"/>
<path d="M160.42 7.74998C160.42 8.10994 160.313 8.46182 160.113 8.76112C159.913 9.06042 159.629 9.29369 159.297 9.43144C158.964 9.56919 158.598 9.60524 158.245 9.53501C157.892 9.46479 157.568 9.29145 157.313 9.03692C157.059 8.78238 156.885 8.45809 156.815 8.10505C156.745 7.752 156.781 7.38606 156.919 7.0535C157.056 6.72094 157.29 6.43669 157.589 6.23671C157.888 6.03672 158.24 5.92998 158.6 5.92998C159.083 5.92998 159.546 6.12173 159.887 6.46305C160.228 6.80436 160.42 7.26729 160.42 7.74998ZM160.85 7.74998C160.852 7.30258 160.721 6.86465 160.474 6.49168C160.227 6.11871 159.875 5.82749 159.462 5.6549C159.049 5.48231 158.594 5.43612 158.155 5.52219C157.716 5.60826 157.313 5.82272 156.996 6.13838C156.678 6.45405 156.462 6.85672 156.374 7.29539C156.286 7.73405 156.33 8.18898 156.501 8.60252C156.672 9.01606 156.962 9.36962 157.333 9.6184C157.705 9.86717 158.143 9.99998 158.59 9.99998C158.887 9.99998 159.181 9.94152 159.455 9.82795C159.729 9.71437 159.978 9.5479 160.188 9.33804C160.398 9.12818 160.564 8.87904 160.678 8.60485C160.792 8.33065 160.85 8.03677 160.85 7.73998V7.74998ZM158.06 7.57998V6.92998H158.5C158.83 6.92998 159 7.04998 159 7.25998C159 7.46998 158.85 7.58998 158.45 7.58998H158.06V7.57998ZM159.66 8.99998L159.38 8.50998C159.12 8.07998 159.07 8.01998 158.87 7.94998C159.044 7.94478 159.21 7.8719 159.331 7.74681C159.452 7.62172 159.52 7.45427 159.52 7.27998C159.52 6.84998 159.23 6.60998 158.71 6.60998H157.57V8.99998H158.06V7.99998H158.15C158.47 7.99998 158.62 8.11998 158.86 8.58998L159.06 8.98998L159.66 8.99998Z" fill="white" fill-opacity="0.8"/>
</svg>
