<svg width="180" height="85" viewBox="0 0 180 85" fill="none" xmlns="http://www.w3.org/2000/svg">
<path d="M2.05589 82.2915H0V68.2201H9.90184V70.2949H2.05589V82.2915Z" fill="#FFFFFB" fill-opacity="0.8"/>
<path d="M23.3329 68.2201H25.3888V82.2915H23.3329V71.4461L15.0715 82.2915H13.0156V68.2201H15.0715V79.0655L23.3329 68.2201Z" fill="#FFFFFB" fill-opacity="0.8"/>
<path d="M31.7811 68.2207L32.6497 70.2949H34.1964C33.8691 72.2913 33.3787 74.1046 32.7252 75.7353C32.0712 77.3672 31.1912 78.8612 30.084 80.2156H28.0098V84.4413H30.0657V82.291H40.9677V84.4413H43.0236V80.2156H41.798V68.2207H31.7811ZM33.904 77.9486C34.3125 77.1132 34.6747 76.2566 34.9888 75.3788C35.303 74.4994 35.5702 73.6245 35.7899 72.7519C36.0096 71.8799 36.1641 71.0599 36.2522 70.2949H39.7421V80.2156H32.5931C33.0577 79.5387 33.4954 78.7823 33.904 77.9486Z" fill="#FFFFFB" fill-opacity="0.8"/>
<path d="M46.418 68.2206V82.2909H48.4739V76.8779C48.9019 76.6513 49.3425 76.5003 49.7962 76.4253C50.2505 76.3498 50.7037 76.312 51.1569 76.312H53.6517C54.2691 76.312 54.8327 76.2176 55.3437 76.0294C55.8546 75.84 56.2889 75.567 56.6483 75.2088C57.0065 74.8506 57.284 74.4226 57.4791 73.9254C57.6748 73.4287 57.7732 72.8663 57.7732 72.238C57.7732 71.6086 57.6748 71.0467 57.4791 70.5495C57.2851 70.0534 57.0076 69.6316 56.6483 69.2855C56.2889 68.9399 55.8552 68.6755 55.3448 68.4936C54.835 68.3116 54.2708 68.2206 53.654 68.2206H46.418ZM48.4739 70.2948H53.6414C54.3211 70.2948 54.8355 70.4402 55.188 70.7285C55.5405 71.0181 55.7162 71.5205 55.7162 72.238C55.7162 73.5706 55.0255 74.2372 53.6425 74.2372H51.154C50.6894 74.2372 50.234 74.2681 49.7882 74.3317C49.3408 74.394 48.9047 74.5514 48.4767 74.8026L48.4739 70.2948Z" fill="#FFFFFB" fill-opacity="0.8"/>
<path d="M64.5324 68.3523C63.6129 68.7163 62.8032 69.2232 62.1057 69.8709C61.4071 70.5187 60.852 71.2854 60.444 72.1717C60.0344 73.0586 59.8301 74.0176 59.8301 75.0482C59.8301 76.1044 60.0252 77.0943 60.4149 78.019C60.8051 78.9431 61.3407 79.7453 62.021 80.4239C62.7002 81.1031 63.4996 81.637 64.4185 82.0278C65.3375 82.4175 66.3319 82.6115 67.4025 82.6115C68.4227 82.6115 69.3921 82.4238 70.311 82.0455C71.2299 81.669 72.0367 81.1535 72.7291 80.4995C73.4209 79.8455 73.9725 79.0724 74.3805 78.1798C74.7902 77.286 74.995 76.3179 74.995 75.2742C74.995 74.2179 74.7964 73.2377 74.4005 72.332C74.0034 71.4262 73.4621 70.6371 72.776 69.9654C72.0894 69.2919 71.2872 68.7637 70.3682 68.3804C69.4493 67.997 68.4668 67.8047 67.4226 67.8047C66.4138 67.8047 65.4508 67.9873 64.5324 68.3523ZM65.2997 80.1424C64.6337 79.8787 64.042 79.5142 63.527 79.0495C63.0115 78.5849 62.6024 78.0305 62.3014 77.3833C61.9998 76.7367 61.8476 76.0381 61.8476 75.2845C61.8476 74.4937 61.9896 73.7682 62.2728 73.109C62.5555 72.4498 62.9451 71.8788 63.4418 71.3958C63.9385 70.9129 64.5261 70.5393 65.2053 70.2755C65.8851 70.0123 66.614 69.8801 67.3934 69.8801C68.1475 69.8801 68.8593 70.0088 69.5248 70.2658C70.1914 70.5232 70.7796 70.8872 71.2883 71.3581C71.7981 71.8284 72.2004 72.3875 72.4956 73.034C72.7915 73.6806 72.9385 74.3861 72.9385 75.1517C72.9385 75.9179 72.7915 76.6269 72.4956 77.2803C72.2004 77.9332 71.8044 78.5008 71.3078 78.9843C70.8105 79.4672 70.2257 79.8466 69.554 80.123C68.8799 80.3993 68.167 80.5372 67.4128 80.5372C66.6701 80.5372 65.9657 80.4056 65.2997 80.1424Z" fill="#FFFFFB" fill-opacity="0.8"/>
<path d="M81.4455 67.9746L82.2191 69.71L76.127 82.2909H78.3534L78.711 81.6317C78.7871 81.4795 78.9313 81.3227 79.1453 81.1591C79.3593 80.9972 79.6414 80.845 79.9933 80.7071C80.3458 80.5692 80.7703 80.4553 81.2664 80.3672C81.7642 80.2796 82.333 80.2356 82.9738 80.2356H87.2562L88.1803 82.2909H90.4811L83.7091 67.9746H81.4455ZM83.2571 72.2185L86.3315 78.1602H83.7286C82.7473 78.1602 81.9674 78.2386 81.3889 78.3965C80.8115 78.5539 80.3955 78.7393 80.1449 78.9533L83.2571 72.2185Z" fill="#FFFFFB" fill-opacity="0.8"/>
<path d="M93.123 68.2206V82.2909H95.1795V76.8779C95.6069 76.6513 96.0481 76.5003 96.5013 76.4253C96.9556 76.3498 97.4094 76.312 97.8625 76.312H100.357C100.974 76.312 101.538 76.2176 102.049 76.0294C102.56 75.84 102.995 75.567 103.353 75.2088C103.712 74.8506 103.989 74.4226 104.185 73.9254C104.38 73.4287 104.478 72.8663 104.478 72.238C104.478 71.6086 104.38 71.0467 104.185 70.5495C103.99 70.0534 103.713 69.6316 103.353 69.2855C102.995 68.9399 102.561 68.6755 102.05 68.4936C101.541 68.3116 100.976 68.2206 100.36 68.2206H93.123ZM95.1795 70.2948H100.347C101.026 70.2948 101.541 70.4402 101.893 70.7285C102.246 71.0181 102.421 71.5205 102.421 72.238C102.421 73.5706 101.731 74.2372 100.348 74.2372H97.8591C97.3951 74.2372 96.9396 74.2681 96.4933 74.3317C96.0458 74.394 95.6098 74.5514 95.1824 74.8026L95.1795 70.2948Z" fill="#FFFFFB" fill-opacity="0.8"/>
<path d="M110.872 68.3523C109.954 68.7163 109.147 69.2232 108.449 69.8709C107.751 70.5187 107.197 71.2854 106.789 72.1717C106.381 73.0586 106.176 74.0176 106.176 75.0482C106.176 76.1044 106.37 77.0943 106.76 78.019C107.15 78.9431 107.684 79.7453 108.364 80.4239C109.044 81.1031 109.842 81.637 110.759 82.0278C111.677 82.4175 112.671 82.6115 113.74 82.6115C114.883 82.6115 115.949 82.3854 116.937 81.9334C117.924 81.4796 118.776 80.8577 119.493 80.0658L118.229 78.3497C117.7 79.0226 117.053 79.5554 116.285 79.9479C115.519 80.341 114.676 80.5372 113.759 80.5372C113.016 80.5372 112.312 80.4056 111.645 80.1424C110.98 79.8787 110.388 79.5142 109.873 79.0495C109.358 78.5849 108.948 78.0305 108.648 77.3833C108.346 76.7367 108.194 76.0381 108.194 75.2845C108.194 74.4937 108.335 73.7682 108.618 73.109C108.901 72.4498 109.291 71.8788 109.788 71.3958C110.285 70.9129 110.872 70.5393 111.552 70.2755C112.231 70.0123 112.96 69.8801 113.74 69.8801C114.544 69.8801 115.299 70.0306 116.003 70.3327C116.707 70.6343 117.323 71.0497 117.851 71.5784L119.173 70.0306C118.48 69.3399 117.672 68.7952 116.748 68.3993C115.824 68.0033 114.827 67.8047 113.759 67.8047C112.752 67.8047 111.79 67.9873 110.872 68.3523Z" fill="#FFFFFB" fill-opacity="0.8"/>
<path d="M122.51 68.2206V82.2909H133.242V80.2155H124.566V76.6496C124.993 76.4236 125.43 76.2771 125.877 76.2079C126.323 76.1387 126.773 76.1043 127.226 76.1043H130.3V74.0301H127.226C126.76 74.0301 126.306 74.0576 125.867 74.1137C125.426 74.1697 124.993 74.3225 124.566 74.5714V70.2948H132.412V68.2206H122.51Z" fill="#FFFFFB" fill-opacity="0.8"/>
<path d="M146.861 68.2206V73.6713C146.559 73.8098 146.239 73.9037 145.899 73.954C145.559 74.0044 145.245 74.0301 144.955 74.0301C144.641 74.0301 144.263 74.0072 143.824 73.9632C143.383 73.9191 142.94 73.8722 142.494 73.8218C142.047 73.7721 141.632 73.7251 141.249 73.6805C140.865 73.637 140.573 73.6141 140.372 73.6141C140.07 73.6141 139.768 73.6433 139.466 73.6994C139.165 73.7566 138.87 73.8539 138.58 73.9918L138.599 68.2206H136.543V82.2909H138.599V76.066C138.888 75.9281 139.183 75.8308 139.483 75.7747C139.784 75.7175 140.085 75.6895 140.387 75.6895C140.587 75.6895 140.879 75.7112 141.262 75.7553C141.645 75.8005 142.058 75.8474 142.504 75.8972C142.95 75.9475 143.392 75.9945 143.83 76.0385C144.269 76.0826 144.646 76.1043 144.961 76.1043C145.248 76.1043 145.562 76.0797 145.901 76.0294C146.239 75.979 146.559 75.884 146.861 75.7456V82.2909H148.917V68.2206H146.861Z" fill="#FFFFFB" fill-opacity="0.8"/>
<path d="M156.685 67.9746L157.459 69.71L151.367 82.2909H153.592L153.951 81.6317C154.027 81.4795 154.171 81.3227 154.385 81.1591C154.599 80.9972 154.881 80.845 155.234 80.7071C155.585 80.5692 156.01 80.4553 156.507 80.3672C157.003 80.2796 157.573 80.2356 158.213 80.2356H162.496L163.42 82.2909H165.72L158.949 67.9746H156.685ZM158.497 72.2185L161.571 78.1602H158.969C157.987 78.1602 157.208 78.2386 156.629 78.3965C156.051 78.5539 155.636 78.7393 155.385 78.9533L158.497 72.2185Z" fill="#FFFFFB" fill-opacity="0.8"/>
<path d="M169.399 68.2206L170.287 70.2948H171.909C171.833 71.0112 171.745 71.7253 171.645 72.4406C171.543 73.1569 171.412 73.8602 171.249 74.5497C171.085 75.2403 170.877 75.9086 170.625 76.5541C170.374 77.2012 170.06 77.8255 169.683 78.4286C169.419 78.8428 169.173 79.169 168.947 79.407C168.721 79.6456 168.507 79.8242 168.306 79.9438C168.105 80.0622 167.916 80.1383 167.74 80.1698C167.564 80.2001 167.394 80.2155 167.231 80.2155H166.854V82.2909H167.231C167.419 82.2909 167.642 82.2789 167.9 82.2537C168.158 82.2291 168.431 82.1719 168.721 82.0838C169.01 81.9956 169.302 81.8635 169.598 81.6878C169.892 81.5116 170.167 81.273 170.418 80.9714C170.984 80.2916 171.465 79.5283 171.861 78.6792C172.257 77.8306 172.59 76.9369 172.862 76.0008C173.132 75.0646 173.349 74.1085 173.512 73.1335C173.675 72.159 173.801 71.2126 173.889 70.2948H177.944V82.2909H180V68.2206H169.399Z" fill="#FFFFFB" fill-opacity="0.8"/>
<path d="M11.5641 43.4984C55.3737 23.8629 14.8628 7.70813 0 1.05521C13.3184 8.82277 36.3173 27.1147 11.5641 43.4984Z" fill="#FFFFFB" fill-opacity="0.8"/>
<path d="M25.387 40.1763C64.4296 23.0138 28.9449 10.2739 15.9395 4.99424C27.5608 11.2306 47.5418 26.0682 25.387 40.1763Z" fill="#FFFFFB" fill-opacity="0.8"/>
<path d="M37.493 36.913C74.0128 21.4414 41.892 12.3921 30.1426 8.57725C40.584 13.2246 58.3816 24.5707 37.493 36.913Z" fill="#FFFFFB" fill-opacity="0.8"/>
<path d="M39.6793 40.4C30.2586 45.639 19.9717 50.8774 3.70703 46.3577C21.3953 59.1142 32.3323 52.2141 44.1361 45.3145C54.2148 39.4232 64.9268 33.5319 81.0158 39.8758C73.0903 34.6517 66.6571 32.7234 60.9998 32.7234C53.0183 32.7234 46.5817 36.5617 39.6793 40.4Z" fill="#FFFFFB" fill-opacity="0.8"/>
<path d="M48.1406 45.9117C63.3805 41.8394 70.6291 44.3365 76.7081 46.833C82.9536 49.3981 87.9643 51.9633 99.1365 47.4034C89.7353 48.704 84.4127 46.2207 79.592 43.7368C75.6873 41.7244 72.1116 39.7126 66.963 39.7126C62.3815 39.7126 56.5542 41.3061 48.1406 45.9117Z" fill="#FFFFFB" fill-opacity="0.8"/>
<path d="M59 24.1582C59 25.773 60.3098 27.0822 61.9245 27.0822C63.5398 27.0822 64.849 25.773 64.849 24.1582C64.849 22.5429 63.5398 21.2337 61.9245 21.2337C60.3098 21.2337 59 22.5429 59 24.1582Z" fill="#FFFFFB" fill-opacity="0.8"/>
<path d="M52.7363 14.2769C52.7363 15.2164 53.4979 15.978 54.438 15.978C55.3776 15.978 56.1397 15.2164 56.1397 14.2769C56.1397 13.3368 55.3776 12.5746 54.438 12.5746C53.4979 12.5746 52.7363 13.3368 52.7363 14.2769Z" fill="#FFFFFB" fill-opacity="0.8"/>
<path d="M61.9238 1.70173C61.9238 2.64128 62.6854 3.40344 63.6261 3.40344C64.5656 3.40344 65.3272 2.64128 65.3272 1.70173C65.3272 0.761615 64.5656 2.26498e-05 63.6261 2.26498e-05C62.6854 2.26498e-05 61.9238 0.761615 61.9238 1.70173Z" fill="#FFFFFB" fill-opacity="0.8"/>
</svg>
