<svg width="24" height="22" viewBox="0 0 24 22" fill="none" xmlns="http://www.w3.org/2000/svg">
<path fill-rule="evenodd" clip-rule="evenodd" d="M1.4987 0.5C0.854366 0.5 0.332031 1.02233 0.332031 1.66667C0.332031 2.311 0.854366 2.83333 1.4987 2.83333H1.50092H1.50263H1.50423H1.50749H1.51062H1.51236H1.51422H1.55908H1.72656H2.30078H2.90076L5.61104 14.7586C5.75078 15.3734 6.3524 15.7635 6.96691 15.6461C7.03794 15.6596 7.11124 15.6667 7.1862 15.6667H18.9987C19.485 15.6667 19.9203 15.365 20.0911 14.9096L23.5911 5.57631C23.7254 5.21803 23.6756 4.81664 23.4576 4.50214C23.2397 4.18764 22.8813 4 22.4987 4H5.55875L4.96969 1.40811C4.84897 0.876939 4.37675 0.5 3.83203 0.5H2.30078H1.72656H1.55908H1.55196H1.54526H1.54365H1.54207H1.53898H1.53314H1.52279H1.52162H1.51936H1.51722H1.51422H1.50749H1.50482H1.50263H1.4987ZM9.66536 16.8333C8.3767 16.8333 7.33203 17.878 7.33203 19.1667C7.33203 20.4553 8.3767 21.5 9.66536 21.5C10.954 21.5 11.9987 20.4553 11.9987 19.1667C11.9987 17.878 10.954 16.8333 9.66536 16.8333ZM14.332 19.1667C14.332 17.878 15.3767 16.8333 16.6654 16.8333C17.954 16.8333 18.9987 17.878 18.9987 19.1667C18.9987 20.4553 17.954 21.5 16.6654 21.5C15.3767 21.5 14.332 20.4553 14.332 19.1667Z" fill="white" fill-opacity="0.6"/>
</svg>
