<svg width="33" height="33" viewBox="0 0 33 33" fill="none" xmlns="http://www.w3.org/2000/svg">
<g clip-path="url(#clip0_174_1769)">
<path d="M24.0672 0H8.93278C4.00716 0 0 4.00716 0 8.93278V24.0674C0 28.9928 4.00716 32.9999 8.93278 32.9999H24.0674C28.9928 32.9999 32.9999 28.9928 32.9999 24.0674V8.93278C32.9999 4.00716 28.9928 0 24.0672 0V0ZM16.5 25.5231C11.5245 25.5231 7.4768 21.4754 7.4768 16.5C7.4768 11.5245 11.5245 7.4768 16.5 7.4768C21.4754 7.4768 25.5231 11.5245 25.5231 16.5C25.5231 21.4754 21.4754 25.5231 16.5 25.5231ZM25.7389 9.60476C24.2686 9.60476 23.0727 8.40885 23.0727 6.93852C23.0727 5.46818 24.2686 4.27203 25.7389 4.27203C27.2092 4.27203 28.4054 5.46818 28.4054 6.93852C28.4054 8.40885 27.2092 9.60476 25.7389 9.60476Z" fill="#FF3D00"/>
<path d="M16.5007 9.4115C12.5922 9.4115 9.41211 12.5913 9.41211 16.5001C9.41211 20.4085 12.5922 23.5886 16.5007 23.5886C20.4094 23.5886 23.5893 20.4085 23.5893 16.5001C23.5893 12.5913 20.4094 9.4115 16.5007 9.4115Z" fill="#FF3D00"/>
<path d="M25.7395 6.20691C25.3361 6.20691 25.0078 6.53522 25.0078 6.93855C25.0078 7.34189 25.3361 7.67019 25.7395 7.67019C26.143 7.67019 26.4713 7.34214 26.4713 6.93855C26.4713 6.53496 26.143 6.20691 25.7395 6.20691Z" fill="#FF3D00"/>
</g>
<defs>
<clipPath id="clip0_174_1769">
<rect width="33" height="33" fill="white"/>
</clipPath>
</defs>
</svg>
