<svg width="50" height="50" viewBox="0 0 50 50" fill="none" xmlns="http://www.w3.org/2000/svg">
<path d="M43.75 33.3332V16.6665C43.7492 15.9358 43.5564 15.2182 43.1907 14.5856C42.825 13.953 42.2995 13.4277 41.6667 13.0623L27.0833 4.729C26.4499 4.3633 25.7314 4.17078 25 4.17078C24.2686 4.17078 23.5501 4.3633 22.9167 4.729L8.33333 13.0623C7.70055 13.4277 7.17496 13.953 6.80929 14.5856C6.44363 15.2182 6.25075 15.9358 6.25 16.6665V33.3332C6.25075 34.0638 6.44363 34.7815 6.80929 35.4141C7.17496 36.0467 7.70055 36.572 8.33333 36.9373L22.9167 45.2707C23.5501 45.6364 24.2686 45.8289 25 45.8289C25.7314 45.8289 26.4499 45.6364 27.0833 45.2707L41.6667 36.9373C42.2995 36.572 42.825 36.0467 43.1907 35.4141C43.5564 34.7815 43.7492 34.0638 43.75 33.3332Z" stroke="#FF3D00" stroke-width="1.5" stroke-linecap="round" stroke-linejoin="round"/>
<path d="M6.8125 14.5L25 25.0208L43.1875 14.5" stroke="#FF3D00" stroke-width="1.5" stroke-linecap="round" stroke-linejoin="round"/>
<path d="M25 46V25" stroke="#FF3D00" stroke-width="1.5" stroke-linecap="round" stroke-linejoin="round"/>
</svg>
