<svg width="50" height="50" viewBox="0 0 50 50" fill="none" xmlns="http://www.w3.org/2000/svg">
<path d="M33.334 6.25H2.08398V33.3333H33.334V6.25Z" stroke="#FF3D00" stroke-width="1.5" stroke-linecap="round" stroke-linejoin="round"/>
<path d="M33.334 16.6666H41.6673L47.9173 22.9166V33.3333H33.334V16.6666Z" stroke="#FF3D00" stroke-width="1.5" stroke-linecap="round" stroke-linejoin="round"/>
<path d="M11.4583 43.75C14.3348 43.75 16.6667 41.4182 16.6667 38.5417C16.6667 35.6652 14.3348 33.3334 11.4583 33.3334C8.58185 33.3334 6.25 35.6652 6.25 38.5417C6.25 41.4182 8.58185 43.75 11.4583 43.75Z" stroke="#FF3D00" stroke-width="1.5" stroke-linecap="round" stroke-linejoin="round"/>
<path d="M38.5423 43.75C41.4188 43.75 43.7506 41.4182 43.7506 38.5417C43.7506 35.6652 41.4188 33.3334 38.5423 33.3334C35.6658 33.3334 33.334 35.6652 33.334 38.5417C33.334 41.4182 35.6658 43.75 38.5423 43.75Z" stroke="#FF3D00" stroke-width="1.5" stroke-linecap="round" stroke-linejoin="round"/>
</svg>
