<svg width="50" height="50" viewBox="0 0 50 50" fill="none" xmlns="http://www.w3.org/2000/svg">
<path d="M48.1097 33.9345L16.0675 1.89229C15.3234 1.18212 14.3344 0.785889 13.3058 0.785889C12.2772 0.785889 11.2882 1.18212 10.5441 1.89229L5.01909 7.41729C4.28678 8.14982 3.87539 9.14321 3.87539 10.179C3.87539 11.2148 4.28678 12.2082 5.01909 12.9407L6.12221 14.0439L12.7472 20.6689L29.3097 37.2313L35.9347 43.8564L37.0378 44.9595C37.7704 45.6918 38.7638 46.1032 39.7996 46.1032C40.8354 46.1032 41.8287 45.6918 42.5613 44.9595L48.0863 39.4345C48.8186 38.702 49.23 37.7086 49.23 36.6728C49.23 35.637 48.8186 34.6436 48.0863 33.911L48.1097 33.9345ZM47.005 38.3532L41.48 43.8782C41.0336 44.3043 40.4401 44.5421 39.823 44.5421C39.2058 44.5421 38.6124 44.3043 38.166 43.8782L37.6128 43.3251L41.48 39.4579C41.6223 39.3106 41.7011 39.1132 41.6993 38.9084C41.6975 38.7035 41.6154 38.5076 41.4705 38.3627C41.3257 38.2179 41.1297 38.1357 40.9249 38.1339C40.72 38.1322 40.5227 38.2109 40.3753 38.3532L36.5081 42.2204L34.2988 40.0095L35.9566 38.3517C36.0989 38.2043 36.1776 38.007 36.1759 37.8021C36.1741 37.5973 36.0919 37.4013 35.9471 37.2565C35.8022 37.1116 35.6063 37.0295 35.4014 37.0277C35.1966 37.0259 34.9992 37.1047 34.8519 37.247L33.1941 38.9064L30.9847 36.697L32.6425 35.0407C32.7848 34.8934 32.8636 34.696 32.8618 34.4912C32.86 34.2864 32.7779 34.0904 32.633 33.9456C32.4882 33.8007 32.2922 33.7185 32.0874 33.7168C31.8825 33.715 31.6852 33.7937 31.5378 33.936L29.88 35.5923L27.6706 33.3829L31.5378 29.5157C31.6801 29.3684 31.7589 29.171 31.7571 28.9662C31.7553 28.7614 31.6732 28.5654 31.5283 28.4206C31.3835 28.2757 31.1875 28.1935 30.9827 28.1918C30.7778 28.19 30.5805 28.2687 30.4331 28.411L26.5644 32.2767L24.355 30.0673L26.0128 28.4095C26.1551 28.2621 26.2339 28.0648 26.2321 27.8599C26.2303 27.6551 26.1482 27.4592 26.0033 27.3143C25.8585 27.1695 25.6625 27.0873 25.4577 27.0855C25.2528 27.0837 25.0555 27.1625 24.9081 27.3048L23.2503 28.9626L21.0394 26.7517L22.6972 25.0939C22.8395 24.9465 22.9183 24.7492 22.9165 24.5443C22.9147 24.3395 22.8325 24.1435 22.6877 23.9987C22.5428 23.8538 22.3469 23.7717 22.1421 23.7699C21.9372 23.7681 21.7399 23.8469 21.5925 23.9892L19.9347 25.647L17.7253 23.4376L21.5925 19.5704C21.7348 19.4231 21.8136 19.2257 21.8118 19.0209C21.81 18.816 21.7279 18.6201 21.583 18.4752C21.4382 18.3304 21.2422 18.2482 21.0374 18.2465C20.8325 18.2447 20.6352 18.3234 20.4878 18.4657L16.6207 22.3329L14.4113 20.1235L16.0675 18.4657C16.1421 18.3937 16.2017 18.3075 16.2426 18.2121C16.2835 18.1168 16.3051 18.0143 16.306 17.9106C16.3069 17.8068 16.2871 17.704 16.2479 17.608C16.2086 17.5119 16.1506 17.4247 16.0772 17.3514C16.0039 17.278 15.9166 17.22 15.8206 17.1807C15.7246 17.1414 15.6217 17.1217 15.518 17.1226C15.4143 17.1235 15.3117 17.145 15.2164 17.186C15.1211 17.2269 15.0349 17.2864 14.9628 17.361L13.3066 19.0189L11.0956 16.8079L12.7535 15.1564C12.8958 15.009 12.9745 14.8117 12.9727 14.6068C12.971 14.402 12.8888 14.206 12.7439 14.0612C12.5991 13.9163 12.4031 13.8342 12.1983 13.8324C11.9935 13.8306 11.7961 13.9094 11.6488 14.0517L9.99253 15.7032L7.78159 13.4939L11.6488 9.62667C11.7911 9.47932 11.8698 9.28197 11.8681 9.07713C11.8663 8.87229 11.7841 8.67634 11.6393 8.53149C11.4944 8.38664 11.2985 8.30448 11.0936 8.3027C10.8888 8.30092 10.6914 8.37967 10.5441 8.52198L6.6769 12.3892L6.12378 11.836C5.68439 11.3965 5.43756 10.8005 5.43756 10.179C5.43756 9.55753 5.68439 8.9615 6.12378 8.52198L11.6488 2.99698C12.0883 2.55759 12.6843 2.31076 13.3058 2.31076C13.9273 2.31076 14.5233 2.55759 14.9628 2.99698L47.005 35.0392C47.4444 35.4787 47.6912 36.0747 47.6912 36.6962C47.6912 37.3177 47.4444 37.9137 47.005 38.3532ZM24.8988 39.1001C24.8601 38.9995 24.8011 38.908 24.7253 38.8314L9.25659 23.3626C8.89385 22.9998 8.46318 22.7119 7.98918 22.5156C7.51519 22.3192 7.00715 22.2181 6.49409 22.2181C5.98103 22.2181 5.47299 22.3192 4.99899 22.5156C4.525 22.7119 4.09433 22.9998 3.73159 23.3626L2.6269 24.4673C2.26406 24.83 1.97624 25.2607 1.77987 25.7347C1.58349 26.2087 1.48242 26.7167 1.48242 27.2298C1.48242 27.7429 1.58349 28.2509 1.77987 28.7249C1.97624 29.1989 2.26406 29.6295 2.6269 29.9923L18.0956 45.461C18.1723 45.5368 18.2638 45.5958 18.3644 45.6345L27.2425 48.9876C27.3309 49.0209 27.4246 49.0378 27.5191 49.0376C27.6456 49.0377 27.7702 49.0071 27.8822 48.9484C27.9943 48.8897 28.0904 48.8047 28.1623 48.7006C28.2342 48.5966 28.2798 48.4766 28.2952 48.351C28.3105 48.2255 28.2951 48.0981 28.2503 47.9798L24.8988 39.1001ZM3.7269 28.8454C3.5091 28.6278 3.33633 28.4037 3.21845 28.1192C3.10057 27.8348 3.0399 27.5299 3.0399 27.222C3.0399 26.9141 3.10057 26.6092 3.21845 26.3247C3.33633 26.0403 3.5091 25.7818 3.7269 25.5642L4.83159 24.4595C5.04924 24.2417 5.30768 24.0689 5.59214 23.951C5.87659 23.8332 6.18149 23.7725 6.4894 23.7725C6.79731 23.7725 7.10221 23.8332 7.38666 23.951C7.67112 24.0689 7.92956 24.2417 8.14721 24.4595L9.80503 26.1173L5.38471 30.536L3.7269 28.8454ZM6.12378 31.172L10.5441 26.7517L23.0628 39.3751L18.6425 43.7954L6.12378 31.172ZM20.0503 44.597L23.8628 40.7845L26.1769 46.9126L20.0503 44.597Z" fill="#FF3D00"/>
</svg>
