<svg width="50" height="50" viewBox="0 0 50 50" fill="none" xmlns="http://www.w3.org/2000/svg">
<path d="M0.680946 24.923C0.678516 24.9222 0.677184 24.9218 0.677187 24.9218C0.67719 24.9218 0.678401 24.9221 0.681024 24.9224L0.680946 24.923ZM0.680946 24.923L0.67185 24.9997L0.592654 24.3328L7.22176 23.5463C15.7817 22.5306 22.5306 15.7817 23.5463 7.22176L0.680946 24.923ZM42.6898 24.291L48.6648 25L42.6898 25.709C33.7857 26.7655 26.7655 33.7857 25.709 42.6898L25 48.6648L24.291 42.6898C23.2345 33.7857 16.2143 26.7655 7.31013 25.709L1.33512 25L7.31013 24.291C16.2143 23.2345 23.2345 16.2143 24.291 7.31013L25 1.33512L25.709 7.31013C26.7655 16.2143 33.7857 23.2345 42.6898 24.291Z" stroke="#FF3D00" stroke-width="1.5"/>
</svg>
