<svg width="44" height="50" viewBox="0 0 44 50" fill="none" xmlns="http://www.w3.org/2000/svg">
<path d="M19.1523 0C18.9863 3.34684e-05 18.8242 0.0496151 18.6866 0.142391C18.549 0.235168 18.4423 0.366912 18.38 0.520742C18.3178 0.674572 18.3029 0.843481 18.3373 1.00582C18.3717 1.16816 18.4538 1.31654 18.573 1.43195L20.5777 3.43667C9.13021 4.00599 0 13.4552 0 25.0428C0 26.5369 0.150734 27.9966 0.439347 29.407C0.727958 30.8173 1.15388 32.1788 1.70206 33.475C2.25025 34.771 2.92179 36.0034 3.70028 37.1558C4.47877 38.3081 5.36313 39.3818 6.34287 40.3614C7.32261 41.3411 8.39618 42.2253 9.54848 43.004C10.7008 43.7824 11.9332 44.454 13.2292 45.0022C13.3306 45.0497 13.4406 45.0763 13.5525 45.0804C13.6645 45.0845 13.7761 45.066 13.8807 45.026C13.9853 44.9859 14.0807 44.9252 14.1614 44.8475C14.242 44.7697 14.3061 44.6765 14.3499 44.5734C14.3936 44.4703 14.4162 44.3595 14.4161 44.2475C14.4161 44.1355 14.3935 44.0246 14.3496 43.9215C14.3058 43.8185 14.2416 43.7253 14.1609 43.6476C14.0803 43.5699 13.9848 43.5093 13.8801 43.4693C12.6843 42.9635 11.5463 42.3429 10.4825 41.6241C9.41865 40.9054 8.42908 40.088 7.52423 39.1833C6.61938 38.2785 5.79886 37.2855 5.08016 36.2217C4.36145 35.1578 3.74393 34.0233 3.23815 32.8274C2.73237 31.6315 2.33936 30.3764 2.07307 29.075C1.80678 27.7737 1.66626 26.4243 1.66626 25.0428C1.66626 14.4214 9.92955 5.77052 20.3825 5.10945L18.573 6.9189C18.493 6.99568 18.4292 7.08763 18.3852 7.18937C18.3413 7.29112 18.318 7.40062 18.3169 7.51146C18.3158 7.6223 18.3368 7.73225 18.3787 7.83487C18.4206 7.93749 18.4825 8.03071 18.5609 8.10909C18.6393 8.18747 18.7325 8.24942 18.8351 8.29132C18.9378 8.33322 19.0477 8.35422 19.1585 8.35309C19.2694 8.35197 19.3789 8.32874 19.4806 8.28477C19.5824 8.24079 19.6743 8.17696 19.7511 8.09701L23.0836 4.76448C23.1614 4.68705 23.2232 4.59501 23.2653 4.49364C23.3075 4.39227 23.3292 4.28358 23.3292 4.1738C23.3292 4.06402 23.3075 3.95532 23.2653 3.85396C23.2232 3.75259 23.1614 3.66055 23.0836 3.58312L19.7511 0.253845C19.6734 0.173545 19.5804 0.10969 19.4775 0.0660816C19.3746 0.0224728 19.264 -1.40755e-08 19.1523 0ZM29.6869 5.01507C29.4993 5.02975 29.3223 5.10744 29.1846 5.2355C29.0468 5.36357 28.9564 5.53448 28.9281 5.72043C28.8999 5.90637 28.9353 6.09642 29.0287 6.25966C29.1222 6.4229 29.2681 6.54972 29.4428 6.6195C30.6386 7.12538 31.7766 7.74284 32.8404 8.4615C33.9042 9.18033 34.8938 10.0008 35.7987 10.9056C36.7035 11.8104 37.524 12.7999 38.2427 13.8638C38.9614 14.9276 39.579 16.0656 40.0847 17.2615C40.5905 18.4573 40.9835 19.7125 41.2498 21.0138C41.5161 22.3152 41.6566 23.6613 41.6566 25.0428C41.6566 35.6938 33.3468 44.3581 22.8526 44.9761L24.7499 43.0788C24.8697 42.9617 24.9514 42.8112 24.9844 42.6469C25.0173 42.4826 25 42.3122 24.9346 42.158C24.8692 42.0037 24.7589 41.8727 24.618 41.7821C24.477 41.6915 24.312 41.6455 24.1446 41.6501C23.9284 41.6561 23.723 41.746 23.5718 41.9007L20.2393 45.2332C20.0831 45.3895 19.9953 45.6014 19.9953 45.8223C19.9953 46.0432 20.0831 46.2551 20.2393 46.4113L23.5718 49.7439C23.6486 49.8238 23.7405 49.8877 23.8423 49.9316C23.944 49.9756 24.0535 49.9988 24.1643 50C24.2752 50.0011 24.3851 49.9801 24.4878 49.9382C24.5904 49.8963 24.6836 49.8343 24.762 49.756C24.8404 49.6776 24.9023 49.5844 24.9442 49.4817C24.9861 49.3791 25.0071 49.2692 25.006 49.1583C25.0049 49.0475 24.9816 48.938 24.9377 48.8362C24.8937 48.7345 24.8298 48.6425 24.7499 48.5658L22.8298 46.6457C34.2377 46.034 43.3229 36.6018 43.3229 25.0428C43.3229 23.5487 43.1722 22.0891 42.8835 20.6786C42.5949 19.2683 42.169 17.9068 41.6208 16.6106C41.0726 15.3146 40.4011 14.0853 39.6226 12.9331C38.8441 11.7807 37.9598 10.7071 36.98 9.72747C36.0003 8.74771 34.9267 7.8601 33.7744 7.08163C32.6221 6.30298 31.3897 5.63161 30.0937 5.08341C29.9919 5.03942 29.8823 5.01618 29.7715 5.01507C29.7433 5.01363 29.715 5.01363 29.6869 5.01507ZM21.6614 11.7127C14.3093 11.7127 8.33132 17.6906 8.33132 25.0428C8.33132 32.3949 14.3093 38.3729 21.6614 38.3729C29.0136 38.3729 34.9916 32.3949 34.9916 25.0428C34.9916 17.6906 29.0136 11.7127 21.6614 11.7127ZM21.6614 13.3789C28.1131 13.3789 33.3253 18.5912 33.3253 25.0428C33.3253 31.4944 28.1131 36.7066 21.6614 36.7066C15.2098 36.7066 9.99759 31.4944 9.99759 25.0428C9.99759 18.5912 15.2098 13.3789 21.6614 13.3789ZM21.0724 16.6659V18.5958C20.5486 18.6601 20.0738 18.7862 19.6502 18.9733C19.2266 19.1604 18.8669 19.4001 18.5665 19.6925C18.2738 19.9848 18.0448 20.3298 17.8831 20.7274C17.729 21.125 17.652 21.5629 17.652 22.0422C17.652 22.5626 17.7417 23.0213 17.9189 23.4188C18.1037 23.8164 18.3643 24.166 18.7032 24.47C19.0498 24.774 19.4676 25.0393 19.9529 25.2673C20.4458 25.4896 20.9997 25.6868 21.6159 25.8564C22.078 26.0083 22.4705 26.1678 22.794 26.3315C23.1252 26.4952 23.3911 26.6723 23.5913 26.8653C23.7993 27.0582 23.948 27.2647 24.0404 27.4869C24.1329 27.7091 24.1804 27.9528 24.1804 28.2159C24.1804 28.5316 24.1234 28.8178 24.0079 29.075C23.8923 29.3265 23.7203 29.5414 23.4969 29.7227C23.2813 29.898 23.0133 30.0366 22.6898 30.136C22.374 30.2298 22.0111 30.2759 21.6029 30.2759C21.3102 30.2759 21.0169 30.2385 20.7242 30.162C20.4315 30.086 20.1656 29.9514 19.9268 29.7584C19.6881 29.5656 19.4971 29.3048 19.3508 28.9774C19.2045 28.65 19.1328 28.2377 19.1328 27.7407H17.0987C17.0987 28.4013 17.2032 28.9692 17.4112 29.4428C17.6191 29.9105 17.8944 30.3012 18.241 30.6111C18.5954 30.921 19.0005 31.1569 19.4549 31.3206C19.9094 31.4846 20.3789 31.5938 20.8641 31.646V33.3286H22.4718V31.646C23.0495 31.5876 23.5685 31.4699 24.0307 31.2945C24.4928 31.1192 24.8853 30.884 25.2088 30.5916C25.5323 30.2993 25.7834 29.9543 25.9605 29.5567C26.1377 29.1532 26.2241 28.7024 26.2241 28.1996C26.2241 27.6851 26.1398 27.2309 25.9703 26.8392C25.8008 26.4475 25.5497 26.1025 25.2185 25.8043C24.8873 25.5061 24.4801 25.2454 23.9949 25.0233C23.5096 24.7952 22.9504 24.5895 22.3188 24.4082C21.8259 24.2503 21.4113 24.0902 21.0724 23.9265C20.7412 23.757 20.47 23.5799 20.262 23.3928C20.0541 23.2056 19.9054 22.9998 19.8129 22.7777C19.7282 22.5497 19.686 22.2968 19.686 22.0162C19.686 21.7122 19.7282 21.4345 19.8129 21.183C19.9054 20.9317 20.0393 20.7174 20.2165 20.5419C20.4013 20.3607 20.6303 20.2215 20.8999 20.1221C21.1695 20.0227 21.487 19.9724 21.8567 19.9724C22.211 19.9724 22.5265 20.0397 22.8037 20.1742C23.081 20.3087 23.3121 20.4943 23.4969 20.7339C23.6818 20.9737 23.8211 21.2592 23.9135 21.5866C24.0136 21.914 24.0632 22.272 24.0632 22.6638H26.0875C26.0875 21.4769 25.7888 20.5425 25.1957 19.8585C24.6104 19.1686 23.7812 18.7517 22.7029 18.6055V16.6659H21.0724Z" fill="#FF3D00"/>
</svg>
