<svg width="21" height="20" viewBox="0 0 21 20" fill="none" xmlns="http://www.w3.org/2000/svg">
<path d="M15.1506 0H5.97826C2.99304 0 0.564453 2.42858 0.564453 5.41381V14.5863C0.564453 17.5714 2.99304 20 5.97826 20H15.1508C18.1358 20 20.5644 17.5714 20.5644 14.5863V5.41381C20.5644 2.42858 18.1358 0 15.1506 0V0ZM10.5644 15.4686C7.549 15.4686 5.09585 13.0154 5.09585 9.99998C5.09585 6.98454 7.549 4.53139 10.5644 4.53139C13.5799 4.53139 16.033 6.98454 16.033 9.99998C16.033 13.0154 13.5799 15.4686 10.5644 15.4686ZM16.1638 5.82106C15.2727 5.82106 14.5479 5.09627 14.5479 4.20516C14.5479 3.31405 15.2727 2.58911 16.1638 2.58911C17.0549 2.58911 17.7798 3.31405 17.7798 4.20516C17.7798 5.09627 17.0549 5.82106 16.1638 5.82106Z" fill="white"/>
<path d="M10.5647 5.7041C8.19589 5.7041 6.26855 7.63128 6.26855 10.0002C6.26855 12.369 8.19589 14.2963 10.5647 14.2963C12.9336 14.2963 14.8608 12.369 14.8608 10.0002C14.8608 7.63128 12.9336 5.7041 10.5647 5.7041Z" fill="white"/>
<path d="M16.1641 3.76172C15.9197 3.76172 15.7207 3.96069 15.7207 4.20514C15.7207 4.44958 15.9197 4.64856 16.1641 4.64856C16.4087 4.64856 16.6077 4.44974 16.6077 4.20514C16.6077 3.96054 16.4087 3.76172 16.1641 3.76172Z" fill="white"/>
</svg>
