<svg width="29" height="20" viewBox="0 0 29 20" fill="none" xmlns="http://www.w3.org/2000/svg">
<path fill-rule="evenodd" clip-rule="evenodd" d="M25.4588 0.611765C26.6824 0.941176 27.6471 1.90588 27.9765 3.12941C28.5882 5.36471 28.5647 10.0235 28.5647 10.0235C28.5647 10.0235 28.5647 14.6588 27.9765 16.8941C27.6471 18.1176 26.6824 19.0824 25.4588 19.4118C23.2235 20 14.2824 20 14.2824 20C14.2824 20 5.36471 20 3.10588 19.3882C1.88235 19.0588 0.917647 18.0941 0.588235 16.8706C0 14.6588 0 10 0 10C0 10 0 5.36471 0.588235 3.12941C0.917647 1.90588 1.90588 0.917647 3.10588 0.588235C5.34118 0 14.2824 0 14.2824 0C14.2824 0 23.2235 0 25.4588 0.611765ZM18.8704 9.99992L11.4351 14.2823V5.71757L18.8704 9.99992Z" fill="white"/>
</svg>
