<svg width="180" height="85" viewBox="0 0 180 85" fill="none" xmlns="http://www.w3.org/2000/svg">
<path d="M2.05589 82.2915H0V68.2201H9.90184V70.2949H2.05589V82.2915Z" fill="#FFFFFB"/>
<path d="M23.3319 68.2201H25.3878V82.2915H23.3319V71.4461L15.0705 82.2915H13.0146V68.2201H15.0705V79.0655L23.3319 68.2201Z" fill="#FFFFFB"/>
<path d="M31.7821 68.2207L32.6507 70.2949H34.1973C33.87 72.2913 33.3797 74.1046 32.7262 75.7353C32.0722 77.3672 31.1921 78.8612 30.085 80.2156H28.0107V84.4413H30.0666V82.291H40.9687V84.4413H43.0246V80.2156H41.7989V68.2207H31.7821ZM33.9049 77.9486C34.3135 77.1132 34.6757 76.2566 34.9898 75.3788C35.3039 74.4994 35.5712 73.6245 35.7909 72.7519C36.0106 71.8799 36.1651 71.0599 36.2532 70.2949H39.743V80.2156H32.594C33.0587 79.5387 33.4964 78.7823 33.9049 77.9486Z" fill="#FFFFFB"/>
<path d="M46.4189 68.2206V82.2909H48.4748V76.8779C48.9028 76.6513 49.3434 76.5003 49.7972 76.4253C50.2515 76.3498 50.7047 76.312 51.1579 76.312H53.6526C54.27 76.312 54.8337 76.2176 55.3446 76.0294C55.8556 75.84 56.2899 75.567 56.6492 75.2088C57.0074 74.8506 57.2849 74.4226 57.4801 73.9254C57.6758 73.4287 57.7742 72.8663 57.7742 72.238C57.7742 71.6086 57.6758 71.0467 57.4801 70.5495C57.2861 70.0534 57.0086 69.6316 56.6492 69.2855C56.2899 68.9399 55.8562 68.6755 55.3458 68.4936C54.836 68.3116 54.2718 68.2206 53.6549 68.2206H46.4189ZM48.4748 70.2948H53.6423C54.3221 70.2948 54.8365 70.4402 55.189 70.7285C55.5415 71.0181 55.7171 71.5205 55.7171 72.238C55.7171 73.5706 55.0265 74.2372 53.6435 74.2372H51.155C50.6904 74.2372 50.2349 74.2681 49.7892 74.3317C49.3417 74.394 48.9057 74.5514 48.4777 74.8026L48.4748 70.2948Z" fill="#FFFFFB"/>
<path d="M64.5314 68.3523C63.6119 68.7163 62.8022 69.2232 62.1047 69.8709C61.4061 70.5187 60.851 71.2854 60.4431 72.1717C60.0334 73.0586 59.8291 74.0176 59.8291 75.0482C59.8291 76.1044 60.0242 77.0943 60.4139 78.019C60.8041 78.9431 61.3397 79.7453 62.02 80.4239C62.6992 81.1031 63.4986 81.637 64.4175 82.0278C65.3365 82.4175 66.331 82.6115 67.4015 82.6115C68.4218 82.6115 69.3911 82.4238 70.31 82.0455C71.229 81.669 72.0358 81.1535 72.7281 80.4995C73.4199 79.8455 73.9715 79.0724 74.3795 78.1798C74.7892 77.286 74.994 76.3179 74.994 75.2742C74.994 74.2179 74.7955 73.2377 74.3995 72.332C74.0024 71.4262 73.4611 70.6371 72.775 69.9654C72.0884 69.2919 71.2862 68.7637 70.3672 68.3804C69.4483 67.997 68.4658 67.8047 67.4216 67.8047C66.4128 67.8047 65.4498 67.9873 64.5314 68.3523ZM65.2987 80.1424C64.6327 79.8787 64.041 79.5142 63.5261 79.0495C63.0105 78.5849 62.6014 78.0305 62.3004 77.3833C61.9989 76.7367 61.8467 76.0381 61.8467 75.2845C61.8467 74.4937 61.9886 73.7682 62.2718 73.109C62.5545 72.4498 62.9441 71.8788 63.4408 71.3958C63.9375 70.9129 64.5251 70.5393 65.2043 70.2755C65.8841 70.0123 66.6131 69.8801 67.3924 69.8801C68.1466 69.8801 68.8584 70.0088 69.5238 70.2658C70.1904 70.5232 70.7787 70.8872 71.2873 71.3581C71.7972 71.8284 72.1994 72.3875 72.4947 73.034C72.7905 73.6806 72.9376 74.3861 72.9376 75.1517C72.9376 75.9179 72.7905 76.6269 72.4947 77.2803C72.1994 77.9332 71.8035 78.5008 71.3068 78.9843C70.8096 79.4672 70.2248 79.8466 69.553 80.123C68.879 80.3993 68.166 80.5372 67.4119 80.5372C66.6691 80.5372 65.9648 80.4056 65.2987 80.1424Z" fill="#FFFFFB"/>
<path d="M81.4455 67.9746L82.2191 69.71L76.127 82.2909H78.3534L78.711 81.6317C78.7871 81.4795 78.9313 81.3227 79.1453 81.1591C79.3593 80.9972 79.6414 80.845 79.9933 80.7071C80.3458 80.5692 80.7703 80.4553 81.2664 80.3672C81.7642 80.2796 82.333 80.2356 82.9738 80.2356H87.2562L88.1803 82.2909H90.4811L83.7091 67.9746H81.4455ZM83.2571 72.2185L86.3315 78.1602H83.7286C82.7473 78.1602 81.9674 78.2386 81.3889 78.3965C80.8115 78.5539 80.3955 78.7393 80.1449 78.9533L83.2571 72.2185Z" fill="#FFFFFB"/>
<path d="M93.1221 68.2206V82.2909H95.1785V76.8779C95.606 76.6513 96.0471 76.5003 96.5003 76.4253C96.9546 76.3498 97.4084 76.312 97.8616 76.312H100.356C100.973 76.312 101.537 76.2176 102.048 76.0294C102.559 75.84 102.994 75.567 103.352 75.2088C103.711 74.8506 103.988 74.4226 104.184 73.9254C104.379 73.4287 104.477 72.8663 104.477 72.238C104.477 71.6086 104.379 71.0467 104.184 70.5495C103.989 70.0534 103.712 69.6316 103.352 69.2855C102.994 68.9399 102.56 68.6755 102.049 68.4936C101.54 68.3116 100.975 68.2206 100.359 68.2206H93.1221ZM95.1785 70.2948H100.346C101.025 70.2948 101.54 70.4402 101.892 70.7285C102.245 71.0181 102.42 71.5205 102.42 72.238C102.42 73.5706 101.73 74.2372 100.347 74.2372H97.8581C97.3941 74.2372 96.9386 74.2681 96.4923 74.3317C96.0448 74.394 95.6088 74.5514 95.1814 74.8026L95.1785 70.2948Z" fill="#FFFFFB"/>
<path d="M110.871 68.3523C109.953 68.7163 109.146 69.2232 108.448 69.8709C107.75 70.5187 107.196 71.2854 106.788 72.1717C106.38 73.0586 106.175 74.0176 106.175 75.0482C106.175 76.1044 106.369 77.0943 106.759 78.019C107.149 78.9431 107.683 79.7453 108.363 80.4239C109.043 81.1031 109.841 81.637 110.758 82.0278C111.676 82.4175 112.67 82.6115 113.739 82.6115C114.882 82.6115 115.948 82.3854 116.936 81.9334C117.923 81.4796 118.775 80.8577 119.492 80.0658L118.228 78.3497C117.699 79.0226 117.052 79.5554 116.284 79.9479C115.518 80.341 114.675 80.5372 113.758 80.5372C113.015 80.5372 112.311 80.4056 111.644 80.1424C110.979 79.8787 110.387 79.5142 109.872 79.0495C109.357 78.5849 108.947 78.0305 108.647 77.3833C108.345 76.7367 108.193 76.0381 108.193 75.2845C108.193 74.4937 108.334 73.7682 108.618 73.109C108.9 72.4498 109.29 71.8788 109.787 71.3958C110.284 70.9129 110.871 70.5393 111.551 70.2755C112.23 70.0123 112.959 69.8801 113.739 69.8801C114.543 69.8801 115.298 70.0306 116.002 70.3327C116.706 70.6343 117.322 71.0497 117.85 71.5784L119.172 70.0306C118.479 69.3399 117.671 68.7952 116.747 68.3993C115.823 68.0033 114.826 67.8047 113.758 67.8047C112.751 67.8047 111.789 67.9873 110.871 68.3523Z" fill="#FFFFFB"/>
<path d="M122.509 68.2206V82.2909H133.241V80.2155H124.565V76.6496C124.992 76.4236 125.429 76.2771 125.876 76.2079C126.322 76.1387 126.772 76.1043 127.225 76.1043H130.299V74.0301H127.225C126.759 74.0301 126.305 74.0576 125.866 74.1137C125.425 74.1697 124.992 74.3225 124.565 74.5714V70.2948H132.411V68.2206H122.509Z" fill="#FFFFFB"/>
<path d="M146.861 68.2206V73.6713C146.559 73.8098 146.239 73.9037 145.899 73.954C145.559 74.0044 145.245 74.0301 144.955 74.0301C144.641 74.0301 144.263 74.0072 143.824 73.9632C143.383 73.9191 142.94 73.8722 142.494 73.8218C142.047 73.7721 141.632 73.7251 141.249 73.6805C140.865 73.637 140.573 73.6141 140.372 73.6141C140.07 73.6141 139.768 73.6433 139.466 73.6994C139.165 73.7566 138.87 73.8539 138.58 73.9918L138.599 68.2206H136.543V82.2909H138.599V76.066C138.888 75.9281 139.183 75.8308 139.483 75.7747C139.784 75.7175 140.085 75.6895 140.387 75.6895C140.587 75.6895 140.879 75.7112 141.262 75.7553C141.645 75.8005 142.058 75.8474 142.504 75.8972C142.95 75.9475 143.392 75.9945 143.83 76.0385C144.269 76.0826 144.646 76.1043 144.961 76.1043C145.248 76.1043 145.562 76.0797 145.901 76.0294C146.239 75.979 146.559 75.884 146.861 75.7456V82.2909H148.917V68.2206H146.861Z" fill="#FFFFFB"/>
<path d="M156.686 67.9746L157.46 69.71L151.368 82.2909H153.593L153.952 81.6317C154.028 81.4795 154.172 81.3227 154.386 81.1591C154.6 80.9972 154.882 80.845 155.235 80.7071C155.586 80.5692 156.011 80.4553 156.508 80.3672C157.004 80.2796 157.574 80.2356 158.214 80.2356H162.497L163.421 82.2909H165.721L158.95 67.9746H156.686ZM158.498 72.2185L161.572 78.1602H158.97C157.988 78.1602 157.209 78.2386 156.63 78.3965C156.052 78.5539 155.637 78.7393 155.386 78.9533L158.498 72.2185Z" fill="#FFFFFB"/>
<path d="M169.399 68.2206L170.287 70.2948H171.909C171.833 71.0112 171.745 71.7253 171.645 72.4406C171.543 73.1569 171.412 73.8602 171.249 74.5497C171.085 75.2403 170.877 75.9086 170.625 76.5541C170.374 77.2012 170.06 77.8255 169.683 78.4286C169.419 78.8428 169.173 79.169 168.947 79.407C168.721 79.6456 168.507 79.8242 168.306 79.9438C168.105 80.0622 167.916 80.1383 167.74 80.1698C167.564 80.2001 167.394 80.2155 167.231 80.2155H166.854V82.2909H167.231C167.419 82.2909 167.642 82.2789 167.9 82.2537C168.158 82.2291 168.431 82.1719 168.721 82.0838C169.01 81.9956 169.302 81.8635 169.598 81.6878C169.892 81.5116 170.167 81.273 170.418 80.9714C170.984 80.2916 171.465 79.5283 171.861 78.6792C172.257 77.8306 172.59 76.9369 172.862 76.0008C173.132 75.0646 173.349 74.1085 173.512 73.1335C173.675 72.159 173.801 71.2126 173.889 70.2948H177.944V82.2909H180V68.2206H169.399Z" fill="#FFFFFB"/>
<path d="M11.5641 43.4984C55.3737 23.8629 14.8628 7.70813 0 1.05521C13.3184 8.82277 36.3173 27.1147 11.5641 43.4984Z" fill="#FFFFFB"/>
<path d="M25.387 40.1763C64.4296 23.0138 28.9449 10.2739 15.9395 4.99424C27.5608 11.2306 47.5418 26.0682 25.387 40.1763Z" fill="#FFFFFB"/>
<path d="M37.493 36.913C74.0128 21.4414 41.892 12.3921 30.1426 8.57725C40.584 13.2246 58.3816 24.5707 37.493 36.913Z" fill="#FFFFFB"/>
<path d="M39.6783 40.4C30.2577 45.639 19.9707 50.8774 3.70605 46.3577C21.3943 59.1142 32.3313 52.2141 44.1351 45.3145C54.2138 39.4232 64.9259 33.5319 81.0149 39.8758C73.0894 34.6517 66.6562 32.7234 60.9989 32.7234C53.0173 32.7234 46.5807 36.5617 39.6783 40.4Z" fill="#FFFFFB"/>
<path d="M48.1396 45.9117C63.3795 41.8394 70.6281 44.3365 76.7071 46.833C82.9526 49.3981 87.9634 51.9633 99.1355 47.4034C89.7343 48.704 84.4117 46.2207 79.591 43.7368C75.6863 41.7244 72.1107 39.7126 66.9621 39.7126C62.3805 39.7126 56.5532 41.3061 48.1396 45.9117Z" fill="#FFFFFB"/>
<path d="M58.999 24.1582C58.999 25.773 60.3088 27.0822 61.9235 27.0822C63.5389 27.0822 64.848 25.773 64.848 24.1582C64.848 22.5429 63.5389 21.2337 61.9235 21.2337C60.3088 21.2337 58.999 22.5429 58.999 24.1582Z" fill="#FFFFFB"/>
<path d="M52.7363 14.2769C52.7363 15.2164 53.4979 15.978 54.438 15.978C55.3776 15.978 56.1397 15.2164 56.1397 14.2769C56.1397 13.3368 55.3776 12.5746 54.438 12.5746C53.4979 12.5746 52.7363 13.3368 52.7363 14.2769Z" fill="#FFFFFB"/>
<path d="M61.9238 1.70173C61.9238 2.64128 62.6854 3.40344 63.6261 3.40344C64.5656 3.40344 65.3272 2.64128 65.3272 1.70173C65.3272 0.761615 64.5656 2.26498e-05 63.6261 2.26498e-05C62.6854 2.26498e-05 61.9238 0.761615 61.9238 1.70173Z" fill="#FFFFFB"/>
</svg>
