<svg width="66" height="66" viewBox="0 0 66 66" fill="none" xmlns="http://www.w3.org/2000/svg">
<path d="M39.9995 16.0003C39.3888 16.6234 39.0467 17.4611 39.0467 18.3336C39.0467 19.2061 39.3888 20.0438 39.9995 20.6669L45.3328 26.0003C45.9559 26.611 46.7937 26.9531 47.6662 26.9531C48.5387 26.9531 49.3764 26.611 49.9995 26.0003L62.5662 13.4336C64.2423 17.1376 64.7498 21.2644 64.021 25.2641C63.2923 29.2638 61.3619 32.9464 58.4871 35.8212C55.6123 38.696 51.9297 40.6264 47.93 41.3551C43.9303 42.0839 39.8035 41.5764 36.0995 39.9003L13.0662 62.9336C11.7401 64.2597 9.94155 65.0047 8.06619 65.0047C6.19082 65.0047 4.39227 64.2597 3.06618 62.9336C1.7401 61.6075 0.995117 59.8089 0.995117 57.9336C0.995117 56.0582 1.7401 54.2597 3.06618 52.9336L26.0995 29.9003C24.4234 26.1963 23.9159 22.0695 24.6447 18.0698C25.3734 14.0701 27.3038 10.3874 30.1786 7.51266C33.0534 4.63788 36.736 2.70749 40.7357 1.97873C44.7354 1.24998 48.8622 1.75747 52.5662 3.43359L40.0329 15.9669L39.9995 16.0003Z" stroke="#FF3D00" stroke-width="1.5" stroke-linecap="round" stroke-linejoin="round"/>
</svg>
