<svg width="9" height="9" viewBox="0 0 9 9" fill="none" xmlns="http://www.w3.org/2000/svg">
<path d="M5.79883 1.66663V3.66663H7.97319" stroke="#E7EEFE" stroke-opacity="0.6" stroke-width="0.7" stroke-linecap="round" stroke-linejoin="round"/>
<path d="M8.33558 1.33337L5.79883 3.66671" stroke="#E7EEFE" stroke-opacity="0.6" stroke-width="0.7" stroke-linecap="round" stroke-linejoin="round"/>
<path d="M7.97197 6.63999V7.63999C7.97238 7.73283 7.9517 7.82471 7.91127 7.90977C7.87084 7.99483 7.81154 8.07119 7.73716 8.13395C7.66279 8.19671 7.57499 8.24449 7.47938 8.27423C7.38378 8.30397 7.28247 8.31501 7.18195 8.30666C6.06681 8.19521 4.99563 7.84471 4.0545 7.28333C3.17889 6.77155 2.43653 6.08872 1.88014 5.28333C1.26768 4.41373 0.886543 3.42366 0.76759 2.39332C0.758534 2.30115 0.770444 2.20825 0.802561 2.12053C0.834678 2.03282 0.886299 1.95222 0.954138 1.88387C1.02198 1.81551 1.10454 1.76089 1.19659 1.7235C1.28863 1.6861 1.38813 1.66675 1.48875 1.66666H2.57593C2.7518 1.66507 2.9223 1.72235 3.05565 1.82784C3.189 1.93332 3.2761 2.07981 3.30072 2.23999C3.34661 2.56001 3.43171 2.87423 3.55439 3.17666C3.60315 3.29597 3.6137 3.42563 3.5848 3.55029C3.5559 3.67494 3.48875 3.78936 3.39132 3.87999L2.93108 4.30332C3.44696 5.13784 4.19817 5.82881 5.10544 6.30333L5.56568 5.87999C5.66421 5.79037 5.7886 5.72861 5.92413 5.70202C6.05965 5.67544 6.20062 5.68514 6.33033 5.72999C6.65911 5.84284 7.00073 5.92112 7.34865 5.96333C7.52469 5.98617 7.68546 6.06773 7.80039 6.19249C7.91531 6.31725 7.97638 6.47652 7.97197 6.63999Z" stroke="#E7EEFE" stroke-opacity="0.6" stroke-width="0.7" stroke-linecap="round" stroke-linejoin="round"/>
</svg>
