<svg width="28" height="28" viewBox="0 0 28 28" fill="none" xmlns="http://www.w3.org/2000/svg">
<path fill-rule="evenodd" clip-rule="evenodd" d="M3.49967 3.5C2.85534 3.5 2.33301 4.02233 2.33301 4.66667C2.33301 5.311 2.85534 5.83333 3.49967 5.83333H3.50189H3.50361H3.50521H3.50847H3.5116H3.51334H3.5152H3.56006H3.72754H4.30176H4.90174L7.61202 17.7586C7.75176 18.3734 8.35338 18.7635 8.96789 18.6461C9.03891 18.6596 9.11222 18.6667 9.18717 18.6667H20.9997C21.486 18.6667 21.9213 18.365 22.0921 17.9096L25.5921 8.57631C25.7264 8.21803 25.6765 7.81664 25.4586 7.50214C25.2406 7.18764 24.8823 7 24.4997 7H7.55973L6.97066 4.40811C6.84994 3.87694 6.37772 3.5 5.83301 3.5H4.30176H3.72754H3.56006H3.55293H3.54623H3.54462H3.54304H3.53996H3.53412H3.52376H3.52259H3.52034H3.5182H3.5152H3.50847H3.5058H3.50361H3.49967ZM11.6663 19.8333C10.3777 19.8333 9.33301 20.878 9.33301 22.1667C9.33301 23.4553 10.3777 24.5 11.6663 24.5C12.955 24.5 13.9997 23.4553 13.9997 22.1667C13.9997 20.878 12.955 19.8333 11.6663 19.8333ZM16.333 22.1667C16.333 20.878 17.3777 19.8333 18.6663 19.8333C19.955 19.8333 20.9997 20.878 20.9997 22.1667C20.9997 23.4553 19.955 24.5 18.6663 24.5C17.3777 24.5 16.333 23.4553 16.333 22.1667Z" fill="white"/>
</svg>
